ISO-10303-21;
HEADER;
FILE_NAME('Open CASCADE Shape Model','2026-09-09T15:32:55',('Author'),(
    'Open CASCADE'),'Open CASCADE STEP processor 7.5','Open CASCADE 7.5'
  ,'Unknown');
FILE_DESCRIPTION(('Open CASCADE Model'),'2;1');
FILE_SCHEMA(('AUTOMOTIVE_DESIGN { 1 0 10303 214 1 1 1 1 }'));
ENDSEC;
DATA;
#1 = APPLICATION_PROTOCOL_DEFINITION('international standard',
  'automotive_design',2000,#2);
#2 = APPLICATION_CONTEXT(
  'core data for automotive mechanical design processes');
#3 = SHAPE_DEFINITION_REPRESENTATION(#4,#10);
#4 = PRODUCT_DEFINITION_SHAPE('','',#5);
#5 = PRODUCT_DEFINITION('design','',#6,#9);
#6 = PRODUCT_DEFINITION_FORMATION('','',#7);
#7 = PRODUCT('Open CASCADE STEP translator 7.5 1',
  'Open CASCADE STEP translator 7.5 1','',(#8));
#8 = PRODUCT_CONTEXT('',#2,'mechanical');
#9 = PRODUCT_DEFINITION_CONTEXT('part definition',#2,'design');
#10 = SHAPE_REPRESENTATION('',(#11,#15,#19,#23,#27,#31,#35,#39,#43,#47,
    #51,#55,#59,#63,#67,#71,#75,#79,#83,#87,#91,#95),#99);
#11 = AXIS2_PLACEMENT_3D('',#12,#13,#14);
#12 = CARTESIAN_POINT('',(0.,0.,0.));
#13 = DIRECTION('',(0.,0.,1.));
#14 = DIRECTION('',(1.,0.,-0.));
#15 = AXIS2_PLACEMENT_3D('',#16,#17,#18);
#16 = CARTESIAN_POINT('',(0.,0.,0.));
#17 = DIRECTION('',(0.,0.,1.));
#18 = DIRECTION('',(1.,0.,-0.));
#19 = AXIS2_PLACEMENT_3D('',#20,#21,#22);
#20 = CARTESIAN_POINT('',(0.,0.,0.));
#21 = DIRECTION('',(0.,0.,1.));
#22 = DIRECTION('',(1.,0.,-0.));
#23 = AXIS2_PLACEMENT_3D('',#24,#25,#26);
#24 = CARTESIAN_POINT('',(0.,0.,0.));
#25 = DIRECTION('',(0.,0.,1.));
#26 = DIRECTION('',(1.,0.,-0.));
#27 = AXIS2_PLACEMENT_3D('',#28,#29,#30);
#28 = CARTESIAN_POINT('',(0.,0.,0.));
#29 = DIRECTION('',(0.,0.,1.));
#30 = DIRECTION('',(1.,0.,-0.));
#31 = AXIS2_PLACEMENT_3D('',#32,#33,#34);
#32 = CARTESIAN_POINT('',(0.,0.,0.));
#33 = DIRECTION('',(0.,0.,1.));
#34 = DIRECTION('',(1.,0.,-0.));
#35 = AXIS2_PLACEMENT_3D('',#36,#37,#38);
#36 = CARTESIAN_POINT('',(0.,0.,0.));
#37 = DIRECTION('',(0.,0.,1.));
#38 = DIRECTION('',(1.,0.,-0.));
#39 = AXIS2_PLACEMENT_3D('',#40,#41,#42);
#40 = CARTESIAN_POINT('',(0.,0.,0.));
#41 = DIRECTION('',(0.,0.,1.));
#42 = DIRECTION('',(1.,0.,-0.));
#43 = AXIS2_PLACEMENT_3D('',#44,#45,#46);
#44 = CARTESIAN_POINT('',(0.,0.,0.));
#45 = DIRECTION('',(0.,0.,1.));
#46 = DIRECTION('',(1.,0.,-0.));
#47 = AXIS2_PLACEMENT_3D('',#48,#49,#50);
#48 = CARTESIAN_POINT('',(0.,0.,0.));
#49 = DIRECTION('',(0.,0.,1.));
#50 = DIRECTION('',(1.,0.,-0.));
#51 = AXIS2_PLACEMENT_3D('',#52,#53,#54);
#52 = CARTESIAN_POINT('',(0.,0.,0.));
#53 = DIRECTION('',(0.,0.,1.));
#54 = DIRECTION('',(1.,0.,-0.));
#55 = AXIS2_PLACEMENT_3D('',#56,#57,#58);
#56 = CARTESIAN_POINT('',(0.,0.,0.));
#57 = DIRECTION('',(0.,0.,1.));
#58 = DIRECTION('',(1.,0.,-0.));
#59 = AXIS2_PLACEMENT_3D('',#60,#61,#62);
#60 = CARTESIAN_POINT('',(0.,0.,0.));
#61 = DIRECTION('',(0.,0.,1.));
#62 = DIRECTION('',(1.,0.,-0.));
#63 = AXIS2_PLACEMENT_3D('',#64,#65,#66);
#64 = CARTESIAN_POINT('',(0.,0.,0.));
#65 = DIRECTION('',(0.,0.,1.));
#66 = DIRECTION('',(1.,0.,-0.));
#67 = AXIS2_PLACEMENT_3D('',#68,#69,#70);
#68 = CARTESIAN_POINT('',(0.,0.,0.));
#69 = DIRECTION('',(0.,0.,1.));
#70 = DIRECTION('',(1.,0.,-0.));
#71 = AXIS2_PLACEMENT_3D('',#72,#73,#74);
#72 = CARTESIAN_POINT('',(0.,0.,0.));
#73 = DIRECTION('',(0.,0.,1.));
#74 = DIRECTION('',(1.,0.,-0.));
#75 = AXIS2_PLACEMENT_3D('',#76,#77,#78);
#76 = CARTESIAN_POINT('',(0.,0.,0.));
#77 = DIRECTION('',(0.,0.,1.));
#78 = DIRECTION('',(1.,0.,-0.));
#79 = AXIS2_PLACEMENT_3D('',#80,#81,#82);
#80 = CARTESIAN_POINT('',(0.,0.,0.));
#81 = DIRECTION('',(0.,0.,1.));
#82 = DIRECTION('',(1.,0.,-0.));
#83 = AXIS2_PLACEMENT_3D('',#84,#85,#86);
#84 = CARTESIAN_POINT('',(0.,0.,0.));
#85 = DIRECTION('',(0.,0.,1.));
#86 = DIRECTION('',(1.,0.,-0.));
#87 = AXIS2_PLACEMENT_3D('',#88,#89,#90);
#88 = CARTESIAN_POINT('',(0.,0.,0.));
#89 = DIRECTION('',(0.,0.,1.));
#90 = DIRECTION('',(1.,0.,-0.));
#91 = AXIS2_PLACEMENT_3D('',#92,#93,#94);
#92 = CARTESIAN_POINT('',(0.,0.,0.));
#93 = DIRECTION('',(0.,0.,1.));
#94 = DIRECTION('',(1.,0.,-0.));
#95 = AXIS2_PLACEMENT_3D('',#96,#97,#98);
#96 = CARTESIAN_POINT('',(0.,0.,0.));
#97 = DIRECTION('',(0.,0.,1.));
#98 = DIRECTION('',(1.,0.,-0.));
#99 = ( GEOMETRIC_REPRESENTATION_CONTEXT(3) 
GLOBAL_UNCERTAINTY_ASSIGNED_CONTEXT((#103)) GLOBAL_UNIT_ASSIGNED_CONTEXT
((#100,#101,#102)) REPRESENTATION_CONTEXT('Context #1',
  '3D Context with UNIT and UNCERTAINTY') );
#100 = ( LENGTH_UNIT() NAMED_UNIT(*) SI_UNIT(.MILLI.,.METRE.) );
#101 = ( NAMED_UNIT(*) PLANE_ANGLE_UNIT() SI_UNIT($,.RADIAN.) );
#102 = ( NAMED_UNIT(*) SI_UNIT($,.STERADIAN.) SOLID_ANGLE_UNIT() );
#103 = UNCERTAINTY_MEASURE_WITH_UNIT(LENGTH_MEASURE(1.E-07),#100,
  'distance_accuracy_value','confusion accuracy');
#104 = PRODUCT_RELATED_PRODUCT_CATEGORY('part',$,(#7));
#105 = ADVANCED_BREP_SHAPE_REPRESENTATION('',(#11,#106),#543);
#106 = MANIFOLD_SOLID_BREP('',#107);
#107 = CLOSED_SHELL('',(#108,#535,#539));
#108 = ADVANCED_FACE('',(#109),#131,.T.);
#109 = FACE_BOUND('',#110,.T.);
#110 = EDGE_LOOP('',(#111,#446,#488,#534));
#111 = ORIENTED_EDGE('',*,*,#112,.T.);
#112 = EDGE_CURVE('',#113,#113,#115,.T.);
#113 = VERTEX_POINT('',#114);
#114 = CARTESIAN_POINT('',(3.2498E-02,0.,0.));
#115 = SURFACE_CURVE('',#116,(#130,#424),.PCURVE_S1.);
#116 = B_SPLINE_CURVE_WITH_KNOTS('',12,(#117,#118,#119,#120,#121,#122,
    #123,#124,#125,#126,#127,#128,#129),.UNSPECIFIED.,.T.,.F.,(13,13),(
    0.,1.),.PIECEWISE_BEZIER_KNOTS.);
#117 = CARTESIAN_POINT('',(3.2498E-02,-8.420776211101E-18,0.));
#118 = CARTESIAN_POINT('',(3.2498E-02,1.701591300939E-02,0.));
#119 = CARTESIAN_POINT('',(2.278062373111E-02,3.40314754567E-02,0.));
#120 = CARTESIAN_POINT('',(3.327727604903E-03,4.494335866465E-02,0.));
#121 = CARTESIAN_POINT('',(-2.152246540801E-02,4.362634598267E-02,0.));
#122 = CARTESIAN_POINT('',(-4.343433364562E-02,2.73835254237E-02,0.));
#123 = CARTESIAN_POINT('',(-5.229505403365E-02,-1.230497185626E-15,0.));
#124 = CARTESIAN_POINT('',(-4.343433364563E-02,-2.73835254237E-02,0.));
#125 = CARTESIAN_POINT('',(-2.152246540799E-02,-4.362634598267E-02,0.));
#126 = CARTESIAN_POINT('',(3.327727604887E-03,-4.494335866466E-02,0.));
#127 = CARTESIAN_POINT('',(2.278062373112E-02,-3.403147545669E-02,0.));
#128 = CARTESIAN_POINT('',(3.2498E-02,-1.701591300939E-02,0.));
#129 = CARTESIAN_POINT('',(3.2498E-02,-8.420764533921E-18,0.));
#130 = PCURVE('',#131,#418);
#131 = ( BOUNDED_SURFACE() B_SPLINE_SURFACE(12,3,(
    (#132,#133,#134,#135,#136,#137,#138,#139,#140,#141,#142,#143,#144
      ,#145,#146,#147,#148,#149,#150,#151,#152,#153)
    ,(#154,#155,#156,#157,#158,#159,#160,#161,#162,#163,#164,#165,#166
      ,#167,#168,#169,#170,#171,#172,#173,#174,#175)
    ,(#176,#177,#178,#179,#180,#181,#182,#183,#184,#185,#186,#187,#188
      ,#189,#190,#191,#192,#193,#194,#195,#196,#197)
    ,(#198,#199,#200,#201,#202,#203,#204,#205,#206,#207,#208,#209,#210
      ,#211,#212,#213,#214,#215,#216,#217,#218,#219)
    ,(#220,#221,#222,#223,#224,#225,#226,#227,#228,#229,#230,#231,#232
      ,#233,#234,#235,#236,#237,#238,#239,#240,#241)
    ,(#242,#243,#244,#245,#246,#247,#248,#249,#250,#251,#252,#253,#254
      ,#255,#256,#257,#258,#259,#260,#261,#262,#263)
    ,(#264,#265,#266,#267,#268,#269,#270,#271,#272,#273,#274,#275,#276
      ,#277,#278,#279,#280,#281,#282,#283,#284,#285)
    ,(#286,#287,#288,#289,#290,#291,#292,#293,#294,#295,#296,#297,#298
      ,#299,#300,#301,#302,#303,#304,#305,#306,#307)
    ,(#308,#309,#310,#311,#312,#313,#314,#315,#316,#317,#318,#319,#320
      ,#321,#322,#323,#324,#325,#326,#327,#328,#329)
    ,(#330,#331,#332,#333,#334,#335,#336,#337,#338,#339,#340,#341,#342
      ,#343,#344,#345,#346,#347,#348,#349,#350,#351)
    ,(#352,#353,#354,#355,#356,#357,#358,#359,#360,#361,#362,#363,#364
      ,#365,#366,#367,#368,#369,#370,#371,#372,#373)
    ,(#374,#375,#376,#377,#378,#379,#380,#381,#382,#383,#384,#385,#386
      ,#387,#388,#389,#390,#391,#392,#393,#394,#395)
    ,(#396,#397,#398,#399,#400,#401,#402,#403,#404,#405,#406,#407,#408
      ,#409,#410,#411,#412,#413,#414,#415,#416,#417
)),.UNSPECIFIED.,.T.,.F.,.F.) B_SPLINE_SURFACE_WITH_KNOTS((13,13),(4,1,1
    ,1,1,1,1,1,1,1,1,1,1,1,1,1,1,1,1,4),(0.,1.),(0.,7.865152037393E-02,
    0.148420989977,0.212226234902,0.271754972448,0.328093224376,
    0.381991663795,0.433995779736,0.484516275715,0.533870338587,
    0.582309129557,0.630027918375,0.677188174033,0.723919168151,
    0.770325942726,0.816494116907,0.862493558402,0.908381372514,
0.954204179551,1.),.UNSPECIFIED.) GEOMETRIC_REPRESENTATION_ITEM() 
RATIONAL_B_SPLINE_SURFACE((
    (1.,1.000000000003,0.999999999999,1.,1.,1.,1.,1.,1.,1.,1.,1.,1.,1.
      ,1.,1.,1.,1.,0.999999999998,1.000000000006,0.999999999986,1.)
    ,(1.,1.000000000003,0.999999999999,1.,1.,1.,1.,1.,1.,1.,1.,1.,1.,1.
      ,1.,1.,1.,1.,0.999999999998,1.000000000006,0.999999999986,1.)
    ,(1.,1.000000000003,0.999999999999,1.,1.,1.,1.,1.,1.,1.,1.,1.,1.,1.
      ,1.,1.,1.,1.,0.999999999998,1.000000000006,0.999999999986,1.)
    ,(1.,1.000000000003,0.999999999999,1.,1.,1.,1.,1.,1.,1.,1.,1.,1.,1.
      ,1.,1.,1.,1.,0.999999999998,1.000000000006,0.999999999986,1.)
    ,(1.,1.000000000003,0.999999999999,1.,1.,1.,1.,1.,1.,1.,1.,1.,1.,1.
      ,1.,1.,1.,1.,0.999999999998,1.000000000006,0.999999999986,1.)
    ,(1.,1.000000000003,0.999999999999,1.,1.,1.,1.,1.,1.,1.,1.,1.,1.,1.
      ,1.,1.,1.,1.,0.999999999998,1.000000000006,0.999999999986,1.)
    ,(1.,1.000000000003,0.999999999999,1.,1.,1.,1.,1.,1.,1.,1.,1.,1.,1.
      ,1.,1.,1.,1.,0.999999999998,1.000000000006,0.999999999986,1.)
    ,(1.,1.000000000003,0.999999999999,1.,1.,1.,1.,1.,1.,1.,1.,1.,1.,1.
      ,1.,1.,1.,1.,0.999999999998,1.000000000006,0.999999999986,1.)
    ,(1.,1.000000000003,0.999999999999,1.,1.,1.,1.,1.,1.,1.,1.,1.,1.,1.
      ,1.,1.,1.,1.,0.999999999998,1.000000000006,0.999999999986,1.)
    ,(1.,1.000000000003,0.999999999999,1.,1.,1.,1.,1.,1.,1.,1.,1.,1.,1.
      ,1.,1.,1.,1.,0.999999999998,1.000000000006,0.999999999986,1.)
    ,(1.,1.000000000003,0.999999999999,1.,1.,1.,1.,1.,1.,1.,1.,1.,1.,1.
      ,1.,1.,1.,1.,0.999999999998,1.000000000006,0.999999999986,1.)
    ,(1.,1.000000000003,0.999999999999,1.,1.,1.,1.,1.,1.,1.,1.,1.,1.,1.
      ,1.,1.,1.,1.,0.999999999998,1.000000000006,0.999999999986,1.)
    ,(1.,1.000000000003,0.999999999999,1.,1.,1.,1.,1.,1.,1.,1.,1.,1.,1.
      ,1.,1.,1.,1.,0.999999999998,1.000000000006,0.999999999986,1.
))) REPRESENTATION_ITEM('') SURFACE() );
#132 = CARTESIAN_POINT('',(3.2498E-02,-8.420776211101E-18,0.));
#133 = CARTESIAN_POINT('',(3.249837511129E-02,-4.090222400245E-17,
    3.844398841319E-03));
#134 = CARTESIAN_POINT('',(3.276822555302E-02,4.109814842063E-17,
    1.109705442702E-02));
#135 = CARTESIAN_POINT('',(3.387916959114E-02,-4.981965203936E-17,
    2.136941862857E-02));
#136 = CARTESIAN_POINT('',(3.547145104851E-02,2.975875559627E-17,
    3.056526062427E-02));
#137 = CARTESIAN_POINT('',(3.743802446377E-02,3.828450074702E-17,
    3.894049154842E-02));
#138 = CARTESIAN_POINT('',(3.970961811788E-02,-5.267977386827E-17,
    4.665415070786E-02));
#139 = CARTESIAN_POINT('',(4.223789349465E-02,3.604642964335E-17,
    5.381493616381E-02));
#140 = CARTESIAN_POINT('',(4.498707801418E-02,-5.53785225214E-17,
    6.05020324236E-02));
#141 = CARTESIAN_POINT('',(4.792952467823E-02,5.450030666652E-17,
    6.677588634686E-02));
#142 = CARTESIAN_POINT('',(5.104332538612E-02,4.033786287009E-17,
    7.26846246936E-02));
#143 = CARTESIAN_POINT('',(5.431008521412E-02,-6.57375136161E-18,
    7.826663474193E-02));
#144 = CARTESIAN_POINT('',(5.771525254654E-02,3.308475567809E-17,
    8.355525856569E-02));
#145 = CARTESIAN_POINT('',(6.124568615619E-02,-8.823399053746E-17,
    8.857738945358E-02));
#146 = CARTESIAN_POINT('',(6.489051544646E-02,3.096394507843E-17,
    9.33568504644E-02));
#147 = CARTESIAN_POINT('',(6.864016005835E-02,6.630168883653E-18,
    9.791411139859E-02));
#148 = CARTESIAN_POINT('',(7.248623758189E-02,-1.165107767195E-17,
    0.102267155222));
#149 = CARTESIAN_POINT('',(7.642133073657E-02,-7.783250812893E-17,
    0.106431854636));
#150 = CARTESIAN_POINT('',(8.043883900781E-02,3.750027706218E-17,
    0.110422318616));
#151 = CARTESIAN_POINT('',(8.453285959117E-02,7.495543084016E-19,
    0.114251171829));
#152 = CARTESIAN_POINT('',(8.730985751131E-02,-4.210962970134E-16,
    0.116703694847));
#153 = CARTESIAN_POINT('',(8.870898640585E-02,1.126926074392E-17,
    0.11790625));
#154 = CARTESIAN_POINT('',(3.2498E-02,1.701591300939E-02,0.));
#155 = CARTESIAN_POINT('',(3.249837511198E-02,1.701610941721E-02,
    3.844398841368E-03));
#156 = CARTESIAN_POINT('',(3.276822555273E-02,1.715740277808E-02,
    1.1097054427E-02));
#157 = CARTESIAN_POINT('',(3.387916959121E-02,1.773909171621E-02,
    2.136941862857E-02));
#158 = CARTESIAN_POINT('',(3.54714510485E-02,1.857280833769E-02,
    3.056526062427E-02));
#159 = CARTESIAN_POINT('',(3.743802446378E-02,1.960250377005E-02,
    3.894049154842E-02));
#160 = CARTESIAN_POINT('',(3.970961811788E-02,2.0791907426E-02,
    4.665415070785E-02));
#161 = CARTESIAN_POINT('',(4.223789349465E-02,2.211570931765E-02,
    5.381493616381E-02));
#162 = CARTESIAN_POINT('',(4.498707801418E-02,2.355517896596E-02,
    6.05020324236E-02));
#163 = CARTESIAN_POINT('',(4.792952467823E-02,2.509584043653E-02,
    6.677588634686E-02));
#164 = CARTESIAN_POINT('',(5.104332538612E-02,2.672622267463E-02,
    7.26846246936E-02));
#165 = CARTESIAN_POINT('',(5.431008521411E-02,2.843669412075E-02,
    7.826663474193E-02));
#166 = CARTESIAN_POINT('',(5.771525254654E-02,3.021963556672E-02,
    8.35552585657E-02));
#167 = CARTESIAN_POINT('',(6.124568615618E-02,3.206816628206E-02,
    8.857738945359E-02));
#168 = CARTESIAN_POINT('',(6.489051544646E-02,3.397659443571E-02,
    9.335685046441E-02));
#169 = CARTESIAN_POINT('',(6.864016005835E-02,3.593990376343E-02,
    9.791411139861E-02));
#170 = CARTESIAN_POINT('',(7.24862375819E-02,3.795370524562E-02,
    0.102267155222));
#171 = CARTESIAN_POINT('',(7.642133073652E-02,4.001411520324E-02,
    0.106431854636));
#172 = CARTESIAN_POINT('',(8.0438839008E-02,4.211767761514E-02,
    0.110422318616));
#173 = CARTESIAN_POINT('',(8.453285959045E-02,4.426130177939E-02,
    0.11425117183));
#174 = CARTESIAN_POINT('',(8.730985751285E-02,4.57153344914E-02,
    0.116703694845));
#175 = CARTESIAN_POINT('',(8.870898640584E-02,4.644791666667E-02,
    0.11790625));
#176 = CARTESIAN_POINT('',(2.278062373111E-02,3.40314754567E-02,0.));
#177 = CARTESIAN_POINT('',(2.278088667925E-02,3.403186826712E-02,
    3.844398842209E-03));
#178 = CARTESIAN_POINT('',(2.297004797205E-02,3.431445207959E-02,
    1.109705442665E-02));
#179 = CARTESIAN_POINT('',(2.374880324408E-02,3.547781797128E-02,
    2.136941862866E-02));
#180 = CARTESIAN_POINT('',(2.486497022436E-02,3.714523403815E-02,
    3.056526062426E-02));
#181 = CARTESIAN_POINT('',(2.62435064087E-02,3.920460368902E-02,
    3.894049154843E-02));
#182 = CARTESIAN_POINT('',(2.783587100145E-02,4.158338649682E-02,
    4.665415070786E-02));
#183 = CARTESIAN_POINT('',(2.960811812125E-02,4.423096300713E-02,
    5.381493616381E-02));
#184 = CARTESIAN_POINT('',(3.153538739061E-02,4.710987264779E-02,
    6.050203242361E-02));
#185 = CARTESIAN_POINT('',(3.359753100337E-02,5.019116384818E-02,
    6.677588634688E-02));
#186 = CARTESIAN_POINT('',(3.578194918693E-02,5.345189473525E-02,
    7.268462469362E-02));
#187 = CARTESIAN_POINT('',(3.806576770525E-02,5.687280238828E-02,
    7.82666347419E-02));
#188 = CARTESIAN_POINT('',(4.045406481155E-02,6.043864854802E-02,
    8.355525856566E-02));
#189 = CARTESIAN_POINT('',(4.292820677645E-02,6.413567189525E-02,
    8.857738945354E-02));
#190 = CARTESIAN_POINT('',(4.548304614224E-02,6.795248888508E-02,
    9.335685046439E-02));
#191 = CARTESIAN_POINT('',(4.811121639604E-02,7.187906709239E-02,
    9.791411139856E-02));
#192 = CARTESIAN_POINT('',(5.080701447651E-02,7.590662856837E-02,
    0.102267155222));
#193 = CARTESIAN_POINT('',(5.356519573647E-02,8.002740603511E-02,
    0.106431854636));
#194 = CARTESIAN_POINT('',(5.63811459145E-02,8.423448752098E-02,
    0.110422318616));
#195 = CARTESIAN_POINT('',(5.925072437332E-02,8.852169168778E-02,
    0.114251171831));
#196 = CARTESIAN_POINT('',(6.119717622422E-02,9.142972715246E-02,
    0.116703694843));
#197 = CARTESIAN_POINT('',(6.217785286361E-02,9.289487641263E-02,
    0.11790625));
#198 = CARTESIAN_POINT('',(3.327727604903E-03,4.494335866465E-02,0.));
#199 = CARTESIAN_POINT('',(3.327766015542E-03,4.494387742841E-02,
    3.844398844537E-03));
#200 = CARTESIAN_POINT('',(3.355397723987E-03,4.531706916806E-02,
    1.109705442569E-02));
#201 = CARTESIAN_POINT('',(3.469157730791E-03,4.685345775733E-02,
    2.136941862886E-02));
#202 = CARTESIAN_POINT('',(3.632198763066E-03,4.905551562644E-02,
    3.056526062419E-02));
#203 = CARTESIAN_POINT('',(3.83358953127E-03,5.177520343318E-02,
    3.894049154842E-02));
#204 = CARTESIAN_POINT('',(4.06613498451E-03,5.491672132157E-02,
    4.665415070784E-02));
#205 = CARTESIAN_POINT('',(4.325238372264E-03,5.841321916947E-02,
    5.38149361638E-02));
#206 = CARTESIAN_POINT('',(4.605994345757E-03,6.221522501279E-02,
    6.050203242358E-02));
#207 = CARTESIAN_POINT('',(4.909993654046E-03,6.628450422303E-02,
    6.677588634683E-02));
#208 = CARTESIAN_POINT('',(5.219109832149E-03,7.059075882406E-02,
    7.268462469357E-02));
#209 = CARTESIAN_POINT('',(5.588942136786E-03,7.510854941497E-02,
    7.826663474198E-02));
#210 = CARTESIAN_POINT('',(5.929995065695E-03,7.981775172694E-02,
    8.355525856577E-02));
#211 = CARTESIAN_POINT('',(6.295193249044E-03,8.470019199895E-02,
    8.857738945368E-02));
#212 = CARTESIAN_POINT('',(6.669180970152E-03,8.974083665601E-02,
    9.335685046444E-02));
#213 = CARTESIAN_POINT('',(7.05472594964E-03,9.4926436467E-02,
    9.79141113987E-02));
#214 = CARTESIAN_POINT('',(7.449974024017E-03,0.100245398914,
    0.102267155222));
#215 = CARTESIAN_POINT('',(7.85442627265E-03,0.105687466211,
    0.106431854636));
#216 = CARTESIAN_POINT('',(8.267334221153E-03,0.111243510127,
    0.110422318617));
#217 = CARTESIAN_POINT('',(8.688109902182E-03,0.116905367333,
    0.114251171829));
#218 = CARTESIAN_POINT('',(8.973523726189E-03,0.12074583793,
    0.116703694847));
#219 = CARTESIAN_POINT('',(9.117323254676E-03,0.122680773981,0.11790625)
  );
#220 = CARTESIAN_POINT('',(-2.152246540801E-02,4.362634598267E-02,0.));
#221 = CARTESIAN_POINT('',(-2.152271383159E-02,4.362684954021E-02,
    3.844398844046E-03));
#222 = CARTESIAN_POINT('',(-2.170142662509E-02,4.39891053377E-02,
    1.10970544259E-02));
#223 = CARTESIAN_POINT('',(-2.243717674335E-02,4.548047184987E-02,
    2.136941862884E-02));
#224 = CARTESIAN_POINT('',(-2.349168266735E-02,4.761800098322E-02,
    3.056526062422E-02));
#225 = CARTESIAN_POINT('',(-2.479413674204E-02,5.02579915122E-02,
    3.894049154845E-02));
#226 = CARTESIAN_POINT('',(-2.62983721188E-02,5.33074508847E-02,
    4.665415070787E-02));
#227 = CARTESIAN_POINT('',(-2.797338236701E-02,5.670148794316E-02,
    5.381493616382E-02));
#228 = CARTESIAN_POINT('',(-2.979193347673E-02,6.039208044175E-02,
    6.050203242363E-02));
#229 = CARTESIAN_POINT('',(-3.174832581714E-02,6.43421141731E-02,
    6.677588634691E-02));
#230 = CARTESIAN_POINT('',(-3.378275399211E-02,6.8522179008E-02,
    7.268462469364E-02));
#231 = CARTESIAN_POINT('',(-3.604696818393E-02,7.290758101721E-02,
    7.826663474185E-02));
#232 = CARTESIAN_POINT('',(-3.828035279012E-02,7.747878565049E-02,
    8.355525856556E-02));
#233 = CARTESIAN_POINT('',(-4.062897551853E-02,8.221815170762E-02,
    8.85773894534E-02));
#234 = CARTESIAN_POINT('',(-4.304501933672E-02,8.711108615475E-02,
    9.335685046435E-02));
#235 = CARTESIAN_POINT('',(-4.553283027713E-02,9.214472801429E-02,
    9.791411139842E-02));
#236 = CARTESIAN_POINT('',(-4.808401697997E-02,9.730782447309E-02,
    0.102267155221));
#237 = CARTESIAN_POINT('',(-5.069441037339E-02,0.102590418339,
    0.106431854636));
#238 = CARTESIAN_POINT('',(-5.335943210023E-02,0.107983648871,
    0.110422318616));
#239 = CARTESIAN_POINT('',(-5.607521987042E-02,0.113479591958,
    0.11425117183));
#240 = CARTESIAN_POINT('',(-5.791735230146E-02,0.117207522045,
    0.116703694845));
#241 = CARTESIAN_POINT('',(-5.884547019591E-02,0.119085757053,0.11790625
    ));
#242 = CARTESIAN_POINT('',(-4.343433364562E-02,2.73835254237E-02,0.));
#243 = CARTESIAN_POINT('',(-4.343483499392E-02,2.73838415004E-02,
    3.844398840477E-03));
#244 = CARTESIAN_POINT('',(-4.379549850324E-02,2.761122338371E-02,
    1.109705442737E-02));
#245 = CARTESIAN_POINT('',(-4.528029268515E-02,2.854732912278E-02,
    2.136941862848E-02));
#246 = CARTESIAN_POINT('',(-4.740844079918E-02,2.988902029671E-02,
    3.056526062429E-02));
#247 = CARTESIAN_POINT('',(-5.003672160895E-02,3.154609805886E-02,
    3.894049154841E-02));
#248 = CARTESIAN_POINT('',(-5.307307012644E-02,3.346019254405E-02,
    4.665415070785E-02));
#249 = CARTESIAN_POINT('',(-5.645108304807E-02,3.559057266153E-02,
    5.381493616381E-02));
#250 = CARTESIAN_POINT('',(-6.012927607182E-02,3.790709565324E-02,
    6.050203242359E-02));
#251 = CARTESIAN_POINT('',(-6.404818019901E-02,4.038646555395E-02,
    6.677588634684E-02));
#252 = CARTESIAN_POINT('',(-6.825940100767E-02,4.301022211891E-02,
    7.268462469357E-02));
#253 = CARTESIAN_POINT('',(-7.244561647373E-02,4.576286538327E-02,
    7.826663474202E-02));
#254 = CARTESIAN_POINT('',(-7.703555391213E-02,4.863213383737E-02,
    8.355525856585E-02));
#255 = CARTESIAN_POINT('',(-8.173527341942E-02,5.16069543957E-02,
    8.857738945382E-02));
#256 = CARTESIAN_POINT('',(-8.660277789995E-02,5.467816725611E-02,
    9.335685046446E-02));
#257 = CARTESIAN_POINT('',(-9.160617222866E-02,5.78376997984E-02,
    9.791411139883E-02));
#258 = CARTESIAN_POINT('',(-9.673932443599E-02,6.107848882068E-02,
    0.102267155222));
#259 = CARTESIAN_POINT('',(-0.101990994058,6.439428436039E-02,
    0.106431854636));
#260 = CARTESIAN_POINT('',(-0.107352729051,6.777952467895E-02,
    0.110422318616));
#261 = CARTESIAN_POINT('',(-0.112816556318,7.12292359459E-02,
    0.114251171832));
#262 = CARTESIAN_POINT('',(-0.116522705942,7.356919511615E-02,
    0.116703694841));
#263 = CARTESIAN_POINT('',(-0.118389966861,7.474813171761E-02,0.11790625
    ));
#264 = CARTESIAN_POINT('',(-5.229505403365E-02,-1.230497185626E-15,0.));
#265 = CARTESIAN_POINT('',(-5.229565765273E-02,-5.952060885794E-15,
    3.84439884273E-03));
#266 = CARTESIAN_POINT('',(-5.272989239416E-02,-7.98642517709E-18,
    1.109705442644E-02));
#267 = CARTESIAN_POINT('',(-5.45176087838E-02,-2.336006864321E-15,
    2.13694186287E-02));
#268 = CARTESIAN_POINT('',(-5.707984006457E-02,-1.990803623515E-15,
    3.056526062424E-02));
#269 = CARTESIAN_POINT('',(-6.024451487734E-02,-8.587014693603E-16,
    3.894049154843E-02));
#270 = CARTESIAN_POINT('',(-6.389953801293E-02,-1.412304566625E-15,
    4.665415070785E-02));
#271 = CARTESIAN_POINT('',(-6.796929114571E-02,-3.700275501143E-15,
    5.381493616381E-02));
#272 = CARTESIAN_POINT('',(-7.238858404781E-02,-6.555500093444E-16,
    6.05020324236E-02));
#273 = CARTESIAN_POINT('',(-7.714007019183E-02,-3.816097191196E-15,
    6.677588634686E-02));
#274 = CARTESIAN_POINT('',(-8.20909987157E-02,-3.132495562897E-16,
    7.268462469362E-02));
#275 = CARTESIAN_POINT('',(-8.756462128898E-02,-1.289757232024E-14,
    7.826663474183E-02));
#276 = CARTESIAN_POINT('',(-9.29973097695E-02,-9.977157809204E-14,
    8.355525856553E-02));
#277 = CARTESIAN_POINT('',(-9.870104979308E-02,-2.404324339258E-14,
    8.857738945333E-02));
#278 = CARTESIAN_POINT('',(-0.104570922024,-1.183305563323E-13,
    9.335685046434E-02));
#279 = CARTESIAN_POINT('',(-0.110614521139,-9.091695922299E-14,
    9.791411139839E-02));
#280 = CARTESIAN_POINT('',(-0.116812245603,-5.57598067016E-14,
    0.102267155221));
#281 = CARTESIAN_POINT('',(-0.123153759319,-1.263041656296E-13,
    0.106431854636));
#282 = CARTESIAN_POINT('',(-0.129627995267,9.675394104806E-14,
    0.110422318616));
#283 = CARTESIAN_POINT('',(-0.136225555874,6.145029804658E-14,
    0.114251171831));
#284 = CARTESIAN_POINT('',(-0.140700714837,-7.364059427077E-13,
    0.116703694842));
#285 = CARTESIAN_POINT('',(-0.142955425146,-9.965964928941E-14,
    0.11790625));
#286 = CARTESIAN_POINT('',(-4.343433364563E-02,-2.73835254237E-02,0.));
#287 = CARTESIAN_POINT('',(-4.343483499121E-02,-2.738384150017E-02,
    3.844398845803E-03));
#288 = CARTESIAN_POINT('',(-4.379549850436E-02,-2.761122338381E-02,
    1.109705442518E-02));
#289 = CARTESIAN_POINT('',(-4.52802926849E-02,-2.854732912276E-02,
    2.1369418629E-02));
#290 = CARTESIAN_POINT('',(-4.740844079925E-02,-2.988902029671E-02,
    3.056526062417E-02));
#291 = CARTESIAN_POINT('',(-5.003672160893E-02,-3.154609805885E-02,
    3.894049154846E-02));
#292 = CARTESIAN_POINT('',(-5.307307012645E-02,-3.346019254405E-02,
    4.665415070786E-02));
#293 = CARTESIAN_POINT('',(-5.645108304805E-02,-3.559057266152E-02,
    5.381493616382E-02));
#294 = CARTESIAN_POINT('',(-6.012927607185E-02,-3.790709565324E-02,
    6.050203242362E-02));
#295 = CARTESIAN_POINT('',(-6.404818019904E-02,-4.038646555394E-02,
    6.677588634691E-02));
#296 = CARTESIAN_POINT('',(-6.825940100768E-02,-4.301022211892E-02,
    7.268462469359E-02));
#297 = CARTESIAN_POINT('',(-7.244561647372E-02,-4.576286538325E-02,
    7.826663474201E-02));
#298 = CARTESIAN_POINT('',(-7.703555391212E-02,-4.863213383719E-02,
    8.355525856582E-02));
#299 = CARTESIAN_POINT('',(-8.173527341941E-02,-5.160695439565E-02,
    8.85773894538E-02));
#300 = CARTESIAN_POINT('',(-8.660277789994E-02,-5.46781672559E-02,
    9.335685046446E-02));
#301 = CARTESIAN_POINT('',(-9.160617222865E-02,-5.783769979825E-02,
    9.791411139875E-02));
#302 = CARTESIAN_POINT('',(-9.673932443597E-02,-6.107848882056E-02,
    0.102267155222));
#303 = CARTESIAN_POINT('',(-0.101990994058,-6.439428436022E-02,
    0.106431854636));
#304 = CARTESIAN_POINT('',(-0.107352729051,-6.777952467893E-02,
    0.110422318617));
#305 = CARTESIAN_POINT('',(-0.112816556319,-7.122923594676E-02,
    0.114251171829));
#306 = CARTESIAN_POINT('',(-0.11652270594,-7.356919511322E-02,
    0.116703694848));
#307 = CARTESIAN_POINT('',(-0.118389966861,-7.474813171743E-02,
    0.11790625));
#308 = CARTESIAN_POINT('',(-2.152246540799E-02,-4.362634598267E-02,0.));
#309 = CARTESIAN_POINT('',(-2.152271383278E-02,-4.362684954292E-02,
    3.844398844082E-03));
#310 = CARTESIAN_POINT('',(-2.170142662461E-02,-4.398910533659E-02,
    1.109705442588E-02));
#311 = CARTESIAN_POINT('',(-2.243717674344E-02,-4.548047185012E-02,
    2.136941862882E-02));
#312 = CARTESIAN_POINT('',(-2.349168266731E-02,-4.761800098316E-02,
    3.056526062421E-02));
#313 = CARTESIAN_POINT('',(-2.479413674204E-02,-5.025799151222E-02,
    3.894049154842E-02));
#314 = CARTESIAN_POINT('',(-2.62983721188E-02,-5.330745088469E-02,
    4.665415070784E-02));
#315 = CARTESIAN_POINT('',(-2.797338236703E-02,-5.670148794316E-02,
    5.381493616381E-02));
#316 = CARTESIAN_POINT('',(-2.979193347669E-02,-6.039208044175E-02,
    6.050203242359E-02));
#317 = CARTESIAN_POINT('',(-3.174832581711E-02,-6.43421141731E-02,
    6.677588634681E-02));
#318 = CARTESIAN_POINT('',(-3.378275399209E-02,-6.852217900798E-02,
    7.268462469361E-02));
#319 = CARTESIAN_POINT('',(-3.604696818395E-02,-7.290758101723E-02,
    7.826663474187E-02));
#320 = CARTESIAN_POINT('',(-3.828035279014E-02,-7.747878565061E-02,
    8.355525856561E-02));
#321 = CARTESIAN_POINT('',(-4.062897551854E-02,-8.221815170765E-02,
    8.857738945343E-02));
#322 = CARTESIAN_POINT('',(-4.304501933674E-02,-8.711108615491E-02,
    9.335685046436E-02));
#323 = CARTESIAN_POINT('',(-4.553283027715E-02,-9.21447280144E-02,
    9.79141113985E-02));
#324 = CARTESIAN_POINT('',(-4.808401697996E-02,-9.730782447317E-02,
    0.102267155221));
#325 = CARTESIAN_POINT('',(-5.069441037345E-02,-0.102590418339,
    0.106431854636));
#326 = CARTESIAN_POINT('',(-5.335943210008E-02,-0.107983648871,
    0.110422318616));
#327 = CARTESIAN_POINT('',(-5.60752198711E-02,-0.113479591957,
    0.11425117183));
#328 = CARTESIAN_POINT('',(-5.791735230009E-02,-0.117207522047,
    0.116703694845));
#329 = CARTESIAN_POINT('',(-5.884547019592E-02,-0.119085757053,
    0.11790625));
#330 = CARTESIAN_POINT('',(3.327727604887E-03,-4.494335866466E-02,0.));
#331 = CARTESIAN_POINT('',(3.327766015316E-03,-4.494387742484E-02,
    3.844398839495E-03));
#332 = CARTESIAN_POINT('',(3.355397724081E-03,-4.531706916954E-02,
    1.109705442777E-02));
#333 = CARTESIAN_POINT('',(3.469157730758E-03,-4.6853457757E-02,
    2.136941862841E-02));
#334 = CARTESIAN_POINT('',(3.632198763065E-03,-4.905551562653E-02,
    3.056526062432E-02));
#335 = CARTESIAN_POINT('',(3.833589531269E-03,-5.177520343316E-02,
    3.894049154842E-02));
#336 = CARTESIAN_POINT('',(4.066134984509E-03,-5.491672132158E-02,
    4.665415070787E-02));
#337 = CARTESIAN_POINT('',(4.325238372282E-03,-5.841321916948E-02,
    5.381493616381E-02));
#338 = CARTESIAN_POINT('',(4.605994345724E-03,-6.22152250128E-02,
    6.050203242362E-02));
#339 = CARTESIAN_POINT('',(4.909993654023E-03,-6.628450422304E-02,
    6.677588634691E-02));
#340 = CARTESIAN_POINT('',(5.21910983214E-03,-7.059075882408E-02,
    7.26846246936E-02));
#341 = CARTESIAN_POINT('',(5.5889421368E-03,-7.510854941495E-02,
    7.826663474196E-02));
#342 = CARTESIAN_POINT('',(5.929995065707E-03,-7.981775172687E-02,
    8.355525856574E-02));
#343 = CARTESIAN_POINT('',(6.295193249051E-03,-8.470019199893E-02,
    8.857738945366E-02));
#344 = CARTESIAN_POINT('',(6.669180970169E-03,-8.974083665591E-02,
    9.335685046442E-02));
#345 = CARTESIAN_POINT('',(7.054725949653E-03,-9.492643646693E-02,
    9.791411139865E-02));
#346 = CARTESIAN_POINT('',(7.449974024025E-03,-0.100245398914,
    0.102267155222));
#347 = CARTESIAN_POINT('',(7.854426272664E-03,-0.105687466211,
    0.106431854636));
#348 = CARTESIAN_POINT('',(8.267334221164E-03,-0.111243510127,
    0.110422318616));
#349 = CARTESIAN_POINT('',(8.688109902262E-03,-0.116905367332,
    0.114251171831));
#350 = CARTESIAN_POINT('',(8.973523726107E-03,-0.120745837931,
    0.116703694843));
#351 = CARTESIAN_POINT('',(9.117323254686E-03,-0.12268077398,0.11790625)
  );
#352 = CARTESIAN_POINT('',(2.278062373112E-02,-3.403147545669E-02,0.));
#353 = CARTESIAN_POINT('',(2.278088667831E-02,-3.403186826803E-02,
    3.844398840893E-03));
#354 = CARTESIAN_POINT('',(2.297004797243E-02,-3.431445207921E-02,
    1.10970544272E-02));
#355 = CARTESIAN_POINT('',(2.374880324399E-02,-3.547781797136E-02,
    2.136941862852E-02));
#356 = CARTESIAN_POINT('',(2.486497022439E-02,-3.714523403812E-02,
    3.056526062428E-02));
#357 = CARTESIAN_POINT('',(2.62435064087E-02,-3.920460368902E-02,
    3.894049154841E-02));
#358 = CARTESIAN_POINT('',(2.783587100146E-02,-4.158338649681E-02,
    4.665415070785E-02));
#359 = CARTESIAN_POINT('',(2.960811812124E-02,-4.423096300712E-02,
    5.381493616381E-02));
#360 = CARTESIAN_POINT('',(3.153538739063E-02,-4.710987264779E-02,
    6.05020324236E-02));
#361 = CARTESIAN_POINT('',(3.359753100338E-02,-5.019116384818E-02,
    6.677588634684E-02));
#362 = CARTESIAN_POINT('',(3.578194918693E-02,-5.345189473524E-02,
    7.26846246936E-02));
#363 = CARTESIAN_POINT('',(3.806576770524E-02,-5.687280238829E-02,
    7.826663474191E-02));
#364 = CARTESIAN_POINT('',(4.045406481155E-02,-6.043864854805E-02,
    8.355525856568E-02));
#365 = CARTESIAN_POINT('',(4.292820677645E-02,-6.413567189526E-02,
    8.857738945355E-02));
#366 = CARTESIAN_POINT('',(4.548304614224E-02,-6.795248888511E-02,
    9.335685046439E-02));
#367 = CARTESIAN_POINT('',(4.811121639603E-02,-7.187906709241E-02,
    9.791411139858E-02));
#368 = CARTESIAN_POINT('',(5.080701447652E-02,-7.590662856839E-02,
    0.102267155222));
#369 = CARTESIAN_POINT('',(5.356519573642E-02,-8.002740603514E-02,
    0.106431854636));
#370 = CARTESIAN_POINT('',(5.638114591464E-02,-8.423448752094E-02,
    0.110422318616));
#371 = CARTESIAN_POINT('',(5.925072437272E-02,-8.852169168782E-02,
    0.11425117183));
#372 = CARTESIAN_POINT('',(6.119717622548E-02,-9.142972715255E-02,
    0.116703694844));
#373 = CARTESIAN_POINT('',(6.217785286361E-02,-9.289487641266E-02,
    0.11790625));
#374 = CARTESIAN_POINT('',(3.2498E-02,-1.701591300939E-02,0.));
#375 = CARTESIAN_POINT('',(3.24983751115E-02,-1.701610941586E-02,
    3.844398840464E-03));
#376 = CARTESIAN_POINT('',(3.276822555293E-02,-1.715740277864E-02,
    1.109705442737E-02));
#377 = CARTESIAN_POINT('',(3.387916959116E-02,-1.773909171608E-02,
    2.136941862849E-02));
#378 = CARTESIAN_POINT('',(3.547145104851E-02,-1.857280833772E-02,
    3.056526062429E-02));
#379 = CARTESIAN_POINT('',(3.743802446377E-02,-1.960250377004E-02,
    3.894049154842E-02));
#380 = CARTESIAN_POINT('',(3.970961811788E-02,-2.0791907426E-02,
    4.665415070786E-02));
#381 = CARTESIAN_POINT('',(4.223789349465E-02,-2.211570931765E-02,
    5.381493616381E-02));
#382 = CARTESIAN_POINT('',(4.498707801417E-02,-2.355517896597E-02,
    6.050203242361E-02));
#383 = CARTESIAN_POINT('',(4.792952467823E-02,-2.509584043653E-02,
    6.677588634687E-02));
#384 = CARTESIAN_POINT('',(5.104332538612E-02,-2.672622267464E-02,
    7.26846246936E-02));
#385 = CARTESIAN_POINT('',(5.431008521412E-02,-2.843669412075E-02,
    7.826663474193E-02));
#386 = CARTESIAN_POINT('',(5.771525254654E-02,-3.021963556671E-02,
    8.35552585657E-02));
#387 = CARTESIAN_POINT('',(6.124568615618E-02,-3.206816628206E-02,
    8.857738945359E-02));
#388 = CARTESIAN_POINT('',(6.489051544646E-02,-3.39765944357E-02,
    9.33568504644E-02));
#389 = CARTESIAN_POINT('',(6.864016005836E-02,-3.593990376343E-02,
    9.79141113986E-02));
#390 = CARTESIAN_POINT('',(7.248623758188E-02,-3.79537052456E-02,
    0.102267155222));
#391 = CARTESIAN_POINT('',(7.642133073661E-02,-4.001411520327E-02,
    0.106431854636));
#392 = CARTESIAN_POINT('',(8.043883900765E-02,-4.211767761502E-02,
    0.110422318616));
#393 = CARTESIAN_POINT('',(8.453285959175E-02,-4.426130177984E-02,
    0.11425117183));
#394 = CARTESIAN_POINT('',(8.730985751006E-02,-4.57153344904E-02,
    0.116703694844));
#395 = CARTESIAN_POINT('',(8.870898640585E-02,-4.644791666666E-02,
    0.11790625));
#396 = CARTESIAN_POINT('',(3.2498E-02,-8.420764533921E-18,0.));
#397 = CARTESIAN_POINT('',(3.249837511011E-02,-2.958443971323E-17,
    3.844398842241E-03));
#398 = CARTESIAN_POINT('',(3.27682255535E-02,-1.871562524718E-17,
    1.109705442664E-02));
#399 = CARTESIAN_POINT('',(3.387916959103E-02,4.423273297087E-17,
    2.136941862866E-02));
#400 = CARTESIAN_POINT('',(3.547145104854E-02,-3.686152047824E-17,
    3.056526062425E-02));
#401 = CARTESIAN_POINT('',(3.743802446377E-02,-2.24568082367E-17,
    3.894049154843E-02));
#402 = CARTESIAN_POINT('',(3.970961811789E-02,7.465156276429E-17,
    4.665415070786E-02));
#403 = CARTESIAN_POINT('',(4.223789349465E-02,-7.680934681968E-17,
    5.381493616381E-02));
#404 = CARTESIAN_POINT('',(4.498707801418E-02,1.014555159127E-16,
    6.05020324236E-02));
#405 = CARTESIAN_POINT('',(4.792952467823E-02,-1.249258774599E-16,
    6.677588634686E-02));
#406 = CARTESIAN_POINT('',(5.104332538612E-02,-5.547598210465E-17,
    7.26846246936E-02));
#407 = CARTESIAN_POINT('',(5.431008521412E-02,4.993082624414E-17,
    7.826663474193E-02));
#408 = CARTESIAN_POINT('',(5.771525254654E-02,-9.669522142812E-17,
    8.355525856569E-02));
#409 = CARTESIAN_POINT('',(6.124568615619E-02,4.042477582511E-17,
    8.857738945358E-02));
#410 = CARTESIAN_POINT('',(6.489051544646E-02,-2.220889661132E-17,
    9.33568504644E-02));
#411 = CARTESIAN_POINT('',(6.864016005835E-02,-7.35789659253E-17,
    9.791411139859E-02));
#412 = CARTESIAN_POINT('',(7.248623758191E-02,2.864249138197E-17,
    0.102267155222));
#413 = CARTESIAN_POINT('',(7.64213307365E-02,6.789557905817E-18,
    0.106431854636));
#414 = CARTESIAN_POINT('',(8.043883900806E-02,-7.963545917011E-18,
    0.110422318616));
#415 = CARTESIAN_POINT('',(8.453285959022E-02,9.803879613144E-17,
    0.114251171829));
#416 = CARTESIAN_POINT('',(8.730985751335E-02,4.800907572672E-17,
    0.116703694847));
#417 = CARTESIAN_POINT('',(8.870898640585E-02,-4.424189048734E-17,
    0.11790625));
#418 = DEFINITIONAL_REPRESENTATION('',(#419),#423);
#419 = LINE('',#420,#421);
#420 = CARTESIAN_POINT('',(0.,0.));
#421 = VECTOR('',#422,1.);
#422 = DIRECTION('',(1.,0.));
#423 = ( GEOMETRIC_REPRESENTATION_CONTEXT(2) 
PARAMETRIC_REPRESENTATION_CONTEXT() REPRESENTATION_CONTEXT('2D SPACE',''
  ) );
#424 = PCURVE('',#425,#430);
#425 = PLANE('',#426);
#426 = AXIS2_PLACEMENT_3D('',#427,#428,#429);
#427 = CARTESIAN_POINT('',(3.2498E-02,-8.420776211101E-18,0.));
#428 = DIRECTION('',(0.,0.,1.));
#429 = DIRECTION('',(-1.,2.096275766675E-16,0.));
#430 = DEFINITIONAL_REPRESENTATION('',(#431),#445);
#431 = B_SPLINE_CURVE_WITH_KNOTS('',12,(#432,#433,#434,#435,#436,#437,
    #438,#439,#440,#441,#442,#443,#444),.UNSPECIFIED.,.F.,.F.,(13,13),(
    0.,1.),.PIECEWISE_BEZIER_KNOTS.);
#432 = CARTESIAN_POINT('',(0.,0.));
#433 = CARTESIAN_POINT('',(-1.228184220992E-15,-1.701591300939E-02));
#434 = CARTESIAN_POINT('',(9.717376268891E-03,-3.40314754567E-02));
#435 = CARTESIAN_POINT('',(2.91702723951E-02,-4.494335866465E-02));
#436 = CARTESIAN_POINT('',(5.402046540801E-02,-4.362634598267E-02));
#437 = CARTESIAN_POINT('',(7.593233364562E-02,-2.73835254237E-02));
#438 = CARTESIAN_POINT('',(8.479305403365E-02,1.23985137185E-15));
#439 = CARTESIAN_POINT('',(7.593233364563E-02,2.73835254237E-02));
#440 = CARTESIAN_POINT('',(5.402046540799E-02,4.362634598267E-02));
#441 = CARTESIAN_POINT('',(2.917027239511E-02,4.494335866466E-02));
#442 = CARTESIAN_POINT('',(9.717376268883E-03,3.403147545669E-02));
#443 = CARTESIAN_POINT('',(1.04777297949E-15,1.701591300939E-02));
#444 = CARTESIAN_POINT('',(-6.938893903907E-18,-1.167718011102E-23));
#445 = ( GEOMETRIC_REPRESENTATION_CONTEXT(2) 
PARAMETRIC_REPRESENTATION_CONTEXT() REPRESENTATION_CONTEXT('2D SPACE',''
  ) );
#446 = ORIENTED_EDGE('',*,*,#447,.T.);
#447 = EDGE_CURVE('',#113,#448,#450,.T.);
#448 = VERTEX_POINT('',#449);
#449 = CARTESIAN_POINT('',(8.870898640585E-02,0.,0.11790625));
#450 = SEAM_CURVE('',#451,(#474,#481),.PCURVE_S1.);
#451 = ( BOUNDED_CURVE() B_SPLINE_CURVE(3,(#452,#453,#454,#455,#456,#457
    ,#458,#459,#460,#461,#462,#463,#464,#465,#466,#467,#468,#469,#470,
#471,#472,#473),.UNSPECIFIED.,.F.,.F.) B_SPLINE_CURVE_WITH_KNOTS((4,1,1,
    1,1,1,1,1,1,1,1,1,1,1,1,1,1,1,1,4),(0.,7.865152037393E-02,
    0.148420989977,0.212226234902,0.271754972448,0.328093224376,
    0.381991663795,0.433995779736,0.484516275715,0.533870338587,
    0.582309129557,0.630027918375,0.677188174033,0.723919168151,
    0.770325942726,0.816494116907,0.862493558402,0.908381372514,
0.954204179551,1.),.UNSPECIFIED.) CURVE() GEOMETRIC_REPRESENTATION_ITEM(
) RATIONAL_B_SPLINE_CURVE((1.,1.000000000003,0.999999999999,1.,1.,1.,1.,
    1.,1.,1.,1.,1.,1.,1.,1.,1.,1.,1.,0.999999999998,1.000000000006,
0.999999999986,1.)) REPRESENTATION_ITEM('') );
#452 = CARTESIAN_POINT('',(3.2498E-02,-8.420776211101E-18,0.));
#453 = CARTESIAN_POINT('',(3.249837511129E-02,-4.090222400245E-17,
    3.844398841319E-03));
#454 = CARTESIAN_POINT('',(3.276822555302E-02,4.109814842063E-17,
    1.109705442702E-02));
#455 = CARTESIAN_POINT('',(3.387916959114E-02,-4.981965203936E-17,
    2.136941862857E-02));
#456 = CARTESIAN_POINT('',(3.547145104851E-02,2.975875559627E-17,
    3.056526062427E-02));
#457 = CARTESIAN_POINT('',(3.743802446377E-02,3.828450074702E-17,
    3.894049154842E-02));
#458 = CARTESIAN_POINT('',(3.970961811788E-02,-5.267977386827E-17,
    4.665415070786E-02));
#459 = CARTESIAN_POINT('',(4.223789349465E-02,3.604642964335E-17,
    5.381493616381E-02));
#460 = CARTESIAN_POINT('',(4.498707801418E-02,-5.53785225214E-17,
    6.05020324236E-02));
#461 = CARTESIAN_POINT('',(4.792952467823E-02,5.450030666652E-17,
    6.677588634686E-02));
#462 = CARTESIAN_POINT('',(5.104332538612E-02,4.033786287009E-17,
    7.26846246936E-02));
#463 = CARTESIAN_POINT('',(5.431008521412E-02,-6.57375136161E-18,
    7.826663474193E-02));
#464 = CARTESIAN_POINT('',(5.771525254654E-02,3.308475567809E-17,
    8.355525856569E-02));
#465 = CARTESIAN_POINT('',(6.124568615619E-02,-8.823399053746E-17,
    8.857738945358E-02));
#466 = CARTESIAN_POINT('',(6.489051544646E-02,3.096394507843E-17,
    9.33568504644E-02));
#467 = CARTESIAN_POINT('',(6.864016005835E-02,6.630168883653E-18,
    9.791411139859E-02));
#468 = CARTESIAN_POINT('',(7.248623758189E-02,-1.165107767195E-17,
    0.102267155222));
#469 = CARTESIAN_POINT('',(7.642133073657E-02,-7.783250812893E-17,
    0.106431854636));
#470 = CARTESIAN_POINT('',(8.043883900781E-02,3.750027706218E-17,
    0.110422318616));
#471 = CARTESIAN_POINT('',(8.453285959117E-02,7.495543084016E-19,
    0.114251171829));
#472 = CARTESIAN_POINT('',(8.730985751131E-02,-4.210962970134E-16,
    0.116703694847));
#473 = CARTESIAN_POINT('',(8.870898640585E-02,1.126926074392E-17,
    0.11790625));
#474 = PCURVE('',#131,#475);
#475 = DEFINITIONAL_REPRESENTATION('',(#476),#480);
#476 = LINE('',#477,#478);
#477 = CARTESIAN_POINT('',(1.,0.));
#478 = VECTOR('',#479,1.);
#479 = DIRECTION('',(0.,1.));
#480 = ( GEOMETRIC_REPRESENTATION_CONTEXT(2) 
PARAMETRIC_REPRESENTATION_CONTEXT() REPRESENTATION_CONTEXT('2D SPACE',''
  ) );
#481 = PCURVE('',#131,#482);
#482 = DEFINITIONAL_REPRESENTATION('',(#483),#487);
#483 = LINE('',#484,#485);
#484 = CARTESIAN_POINT('',(0.,0.));
#485 = VECTOR('',#486,1.);
#486 = DIRECTION('',(0.,1.));
#487 = ( GEOMETRIC_REPRESENTATION_CONTEXT(2) 
PARAMETRIC_REPRESENTATION_CONTEXT() REPRESENTATION_CONTEXT('2D SPACE',''
  ) );
#488 = ORIENTED_EDGE('',*,*,#489,.F.);
#489 = EDGE_CURVE('',#448,#448,#490,.T.);
#490 = SURFACE_CURVE('',#491,(#505,#512),.PCURVE_S1.);
#491 = B_SPLINE_CURVE_WITH_KNOTS('',12,(#492,#493,#494,#495,#496,#497,
    #498,#499,#500,#501,#502,#503,#504),.UNSPECIFIED.,.T.,.F.,(13,13),(
    0.,1.),.PIECEWISE_BEZIER_KNOTS.);
#492 = CARTESIAN_POINT('',(8.870898640585E-02,1.126926074392E-17,
    0.11790625));
#493 = CARTESIAN_POINT('',(8.870898640584E-02,4.644791666667E-02,
    0.11790625));
#494 = CARTESIAN_POINT('',(6.217785286361E-02,9.289487641263E-02,
    0.11790625));
#495 = CARTESIAN_POINT('',(9.117323254676E-03,0.122680773981,0.11790625)
  );
#496 = CARTESIAN_POINT('',(-5.884547019591E-02,0.119085757053,0.11790625
    ));
#497 = CARTESIAN_POINT('',(-0.118389966861,7.474813171761E-02,0.11790625
    ));
#498 = CARTESIAN_POINT('',(-0.142955425146,-9.965964928941E-14,
    0.11790625));
#499 = CARTESIAN_POINT('',(-0.118389966861,-7.474813171743E-02,
    0.11790625));
#500 = CARTESIAN_POINT('',(-5.884547019592E-02,-0.119085757053,
    0.11790625));
#501 = CARTESIAN_POINT('',(9.117323254686E-03,-0.12268077398,0.11790625)
  );
#502 = CARTESIAN_POINT('',(6.217785286361E-02,-9.289487641266E-02,
    0.11790625));
#503 = CARTESIAN_POINT('',(8.870898640585E-02,-4.644791666666E-02,
    0.11790625));
#504 = CARTESIAN_POINT('',(8.870898640585E-02,-4.424189048734E-17,
    0.11790625));
#505 = PCURVE('',#131,#506);
#506 = DEFINITIONAL_REPRESENTATION('',(#507),#511);
#507 = LINE('',#508,#509);
#508 = CARTESIAN_POINT('',(0.,1.));
#509 = VECTOR('',#510,1.);
#510 = DIRECTION('',(1.,0.));
#511 = ( GEOMETRIC_REPRESENTATION_CONTEXT(2) 
PARAMETRIC_REPRESENTATION_CONTEXT() REPRESENTATION_CONTEXT('2D SPACE',''
  ) );
#512 = PCURVE('',#513,#518);
#513 = PLANE('',#514);
#514 = AXIS2_PLACEMENT_3D('',#515,#516,#517);
#515 = CARTESIAN_POINT('',(8.870898640585E-02,1.126926074392E-17,
    0.11790625));
#516 = DIRECTION('',(7.822086839447E-17,2.346626174704E-16,1.));
#517 = DIRECTION('',(-1.,7.336837301161E-17,7.822086839447E-17));
#518 = DEFINITIONAL_REPRESENTATION('',(#519),#533);
#519 = B_SPLINE_CURVE_WITH_KNOTS('',12,(#520,#521,#522,#523,#524,#525,
    #526,#527,#528,#529,#530,#531,#532),.UNSPECIFIED.,.F.,.F.,(13,13),(
    0.,1.),.PIECEWISE_BEZIER_KNOTS.);
#520 = CARTESIAN_POINT('',(0.,0.));
#521 = CARTESIAN_POINT('',(9.853229343548E-16,-4.644791666667E-02));
#522 = CARTESIAN_POINT('',(2.653113354223E-02,-9.289487641263E-02));
#523 = CARTESIAN_POINT('',(7.959166315117E-02,-0.122680773981));
#524 = CARTESIAN_POINT('',(0.147554456602,-0.119085757053));
#525 = CARTESIAN_POINT('',(0.207098953267,-7.474813171761E-02));
#526 = CARTESIAN_POINT('',(0.231664411552,9.968791539112E-14));
#527 = CARTESIAN_POINT('',(0.207098953267,7.474813171743E-02));
#528 = CARTESIAN_POINT('',(0.147554456602,0.119085757053));
#529 = CARTESIAN_POINT('',(7.959166315116E-02,0.12268077398));
#530 = CARTESIAN_POINT('',(2.653113354224E-02,9.289487641266E-02));
#531 = CARTESIAN_POINT('',(-1.110223024625E-16,4.644791666666E-02));
#532 = CARTESIAN_POINT('',(0.,5.551115123126E-17));
#533 = ( GEOMETRIC_REPRESENTATION_CONTEXT(2) 
PARAMETRIC_REPRESENTATION_CONTEXT() REPRESENTATION_CONTEXT('2D SPACE',''
  ) );
#534 = ORIENTED_EDGE('',*,*,#447,.F.);
#535 = ADVANCED_FACE('',(#536),#425,.F.);
#536 = FACE_BOUND('',#537,.T.);
#537 = EDGE_LOOP('',(#538));
#538 = ORIENTED_EDGE('',*,*,#112,.F.);
#539 = ADVANCED_FACE('',(#540),#513,.T.);
#540 = FACE_BOUND('',#541,.T.);
#541 = EDGE_LOOP('',(#542));
#542 = ORIENTED_EDGE('',*,*,#489,.T.);
#543 = ( GEOMETRIC_REPRESENTATION_CONTEXT(3) 
GLOBAL_UNCERTAINTY_ASSIGNED_CONTEXT((#547)) GLOBAL_UNIT_ASSIGNED_CONTEXT
((#544,#545,#546)) REPRESENTATION_CONTEXT('Context #1',
  '3D Context with UNIT and UNCERTAINTY') );
#544 = ( LENGTH_UNIT() NAMED_UNIT(*) SI_UNIT(.MILLI.,.METRE.) );
#545 = ( NAMED_UNIT(*) PLANE_ANGLE_UNIT() SI_UNIT($,.RADIAN.) );
#546 = ( NAMED_UNIT(*) SI_UNIT($,.STERADIAN.) SOLID_ANGLE_UNIT() );
#547 = UNCERTAINTY_MEASURE_WITH_UNIT(LENGTH_MEASURE(1.E-07),#544,
  'distance_accuracy_value','confusion accuracy');
#548 = SHAPE_DEFINITION_REPRESENTATION(#549,#105);
#549 = PRODUCT_DEFINITION_SHAPE('','',#550);
#550 = PRODUCT_DEFINITION('design','',#551,#554);
#551 = PRODUCT_DEFINITION_FORMATION('','',#552);
#552 = PRODUCT('Open CASCADE STEP translator 7.5 1.1',
  'Open CASCADE STEP translator 7.5 1.1','',(#553));
#553 = PRODUCT_CONTEXT('',#2,'mechanical');
#554 = PRODUCT_DEFINITION_CONTEXT('part definition',#2,'design');
#555 = CONTEXT_DEPENDENT_SHAPE_REPRESENTATION(#556,#558);
#556 = ( REPRESENTATION_RELATIONSHIP('','',#105,#10) 
REPRESENTATION_RELATIONSHIP_WITH_TRANSFORMATION(#557) 
SHAPE_REPRESENTATION_RELATIONSHIP() );
#557 = ITEM_DEFINED_TRANSFORMATION('','',#11,#15);
#558 = PRODUCT_DEFINITION_SHAPE('Placement','Placement of an item',#559
  );
#559 = NEXT_ASSEMBLY_USAGE_OCCURRENCE('22','','',#5,#550,$);
#560 = PRODUCT_RELATED_PRODUCT_CATEGORY('part',$,(#552));
#561 = MANIFOLD_SURFACE_SHAPE_REPRESENTATION('',(#11,#562),#589);
#562 = SHELL_BASED_SURFACE_MODEL('',(#563));
#563 = OPEN_SHELL('',(#564));
#564 = ADVANCED_FACE('',(#565),#578,.T.);
#565 = FACE_BOUND('',#566,.T.);
#566 = EDGE_LOOP('',(#567));
#567 = ORIENTED_EDGE('',*,*,#568,.T.);
#568 = EDGE_CURVE('',#569,#569,#571,.T.);
#569 = VERTEX_POINT('',#570);
#570 = CARTESIAN_POINT('',(3.2498E-02,0.,0.));
#571 = SURFACE_CURVE('',#572,(#577),.PCURVE_S1.);
#572 = CIRCLE('',#573,3.2498E-02);
#573 = AXIS2_PLACEMENT_3D('',#574,#575,#576);
#574 = CARTESIAN_POINT('',(0.,0.,0.));
#575 = DIRECTION('',(0.,0.,1.));
#576 = DIRECTION('',(1.,0.,-0.));
#577 = PCURVE('',#578,#583);
#578 = PLANE('',#579);
#579 = AXIS2_PLACEMENT_3D('',#580,#581,#582);
#580 = CARTESIAN_POINT('',(-7.787512054847E-19,1.51776213045E-18,0.));
#581 = DIRECTION('',(0.,0.,1.));
#582 = DIRECTION('',(1.,0.,-0.));
#583 = DEFINITIONAL_REPRESENTATION('',(#584),#588);
#584 = CIRCLE('',#585,3.2498E-02);
#585 = AXIS2_PLACEMENT_2D('',#586,#587);
#586 = CARTESIAN_POINT('',(7.787512054847E-19,-1.51776213045E-18));
#587 = DIRECTION('',(1.,0.));
#588 = ( GEOMETRIC_REPRESENTATION_CONTEXT(2) 
PARAMETRIC_REPRESENTATION_CONTEXT() REPRESENTATION_CONTEXT('2D SPACE',''
  ) );
#589 = ( GEOMETRIC_REPRESENTATION_CONTEXT(3) 
GLOBAL_UNCERTAINTY_ASSIGNED_CONTEXT((#593)) GLOBAL_UNIT_ASSIGNED_CONTEXT
((#590,#591,#592)) REPRESENTATION_CONTEXT('Context #1',
  '3D Context with UNIT and UNCERTAINTY') );
#590 = ( LENGTH_UNIT() NAMED_UNIT(*) SI_UNIT(.MILLI.,.METRE.) );
#591 = ( NAMED_UNIT(*) PLANE_ANGLE_UNIT() SI_UNIT($,.RADIAN.) );
#592 = ( NAMED_UNIT(*) SI_UNIT($,.STERADIAN.) SOLID_ANGLE_UNIT() );
#593 = UNCERTAINTY_MEASURE_WITH_UNIT(LENGTH_MEASURE(1.E-07),#590,
  'distance_accuracy_value','confusion accuracy');
#594 = SHAPE_DEFINITION_REPRESENTATION(#595,#561);
#595 = PRODUCT_DEFINITION_SHAPE('','',#596);
#596 = PRODUCT_DEFINITION('design','',#597,#600);
#597 = PRODUCT_DEFINITION_FORMATION('','',#598);
#598 = PRODUCT('Open CASCADE STEP translator 7.5 1.2',
  'Open CASCADE STEP translator 7.5 1.2','',(#599));
#599 = PRODUCT_CONTEXT('',#2,'mechanical');
#600 = PRODUCT_DEFINITION_CONTEXT('part definition',#2,'design');
#601 = CONTEXT_DEPENDENT_SHAPE_REPRESENTATION(#602,#604);
#602 = ( REPRESENTATION_RELATIONSHIP('','',#561,#10) 
REPRESENTATION_RELATIONSHIP_WITH_TRANSFORMATION(#603) 
SHAPE_REPRESENTATION_RELATIONSHIP() );
#603 = ITEM_DEFINED_TRANSFORMATION('','',#11,#19);
#604 = PRODUCT_DEFINITION_SHAPE('Placement','Placement of an item',#605
  );
#605 = NEXT_ASSEMBLY_USAGE_OCCURRENCE('23','','',#5,#596,$);
#606 = PRODUCT_RELATED_PRODUCT_CATEGORY('part',$,(#598));
#607 = MANIFOLD_SURFACE_SHAPE_REPRESENTATION('',(#11,#608),#635);
#608 = SHELL_BASED_SURFACE_MODEL('',(#609));
#609 = OPEN_SHELL('',(#610));
#610 = ADVANCED_FACE('',(#611),#624,.T.);
#611 = FACE_BOUND('',#612,.T.);
#612 = EDGE_LOOP('',(#613));
#613 = ORIENTED_EDGE('',*,*,#614,.T.);
#614 = EDGE_CURVE('',#615,#615,#617,.T.);
#615 = VERTEX_POINT('',#616);
#616 = CARTESIAN_POINT('',(8.870898640585E-02,0.,0.11790625));
#617 = SURFACE_CURVE('',#618,(#623),.PCURVE_S1.);
#618 = CIRCLE('',#619,8.870898640585E-02);
#619 = AXIS2_PLACEMENT_3D('',#620,#621,#622);
#620 = CARTESIAN_POINT('',(0.,0.,0.11790625));
#621 = DIRECTION('',(0.,0.,1.));
#622 = DIRECTION('',(1.,0.,-0.));
#623 = PCURVE('',#624,#629);
#624 = PLANE('',#625);
#625 = AXIS2_PLACEMENT_3D('',#626,#627,#628);
#626 = CARTESIAN_POINT('',(-6.582796496222E-18,4.751583144368E-18,
    0.11790625));
#627 = DIRECTION('',(0.,0.,1.));
#628 = DIRECTION('',(1.,0.,-0.));
#629 = DEFINITIONAL_REPRESENTATION('',(#630),#634);
#630 = CIRCLE('',#631,8.870898640585E-02);
#631 = AXIS2_PLACEMENT_2D('',#632,#633);
#632 = CARTESIAN_POINT('',(6.582796496222E-18,-4.751583144368E-18));
#633 = DIRECTION('',(1.,0.));
#634 = ( GEOMETRIC_REPRESENTATION_CONTEXT(2) 
PARAMETRIC_REPRESENTATION_CONTEXT() REPRESENTATION_CONTEXT('2D SPACE',''
  ) );
#635 = ( GEOMETRIC_REPRESENTATION_CONTEXT(3) 
GLOBAL_UNCERTAINTY_ASSIGNED_CONTEXT((#639)) GLOBAL_UNIT_ASSIGNED_CONTEXT
((#636,#637,#638)) REPRESENTATION_CONTEXT('Context #1',
  '3D Context with UNIT and UNCERTAINTY') );
#636 = ( LENGTH_UNIT() NAMED_UNIT(*) SI_UNIT(.MILLI.,.METRE.) );
#637 = ( NAMED_UNIT(*) PLANE_ANGLE_UNIT() SI_UNIT($,.RADIAN.) );
#638 = ( NAMED_UNIT(*) SI_UNIT($,.STERADIAN.) SOLID_ANGLE_UNIT() );
#639 = UNCERTAINTY_MEASURE_WITH_UNIT(LENGTH_MEASURE(1.E-07),#636,
  'distance_accuracy_value','confusion accuracy');
#640 = SHAPE_DEFINITION_REPRESENTATION(#641,#607);
#641 = PRODUCT_DEFINITION_SHAPE('','',#642);
#642 = PRODUCT_DEFINITION('design','',#643,#646);
#643 = PRODUCT_DEFINITION_FORMATION('','',#644);
#644 = PRODUCT('Open CASCADE STEP translator 7.5 1.3',
  'Open CASCADE STEP translator 7.5 1.3','',(#645));
#645 = PRODUCT_CONTEXT('',#2,'mechanical');
#646 = PRODUCT_DEFINITION_CONTEXT('part definition',#2,'design');
#647 = CONTEXT_DEPENDENT_SHAPE_REPRESENTATION(#648,#650);
#648 = ( REPRESENTATION_RELATIONSHIP('','',#607,#10) 
REPRESENTATION_RELATIONSHIP_WITH_TRANSFORMATION(#649) 
SHAPE_REPRESENTATION_RELATIONSHIP() );
#649 = ITEM_DEFINED_TRANSFORMATION('','',#11,#23);
#650 = PRODUCT_DEFINITION_SHAPE('Placement','Placement of an item',#651
  );
#651 = NEXT_ASSEMBLY_USAGE_OCCURRENCE('24','','',#5,#642,$);
#652 = PRODUCT_RELATED_PRODUCT_CATEGORY('part',$,(#644));
#653 = GEOMETRICALLY_BOUNDED_WIREFRAME_SHAPE_REPRESENTATION('',(#11,#654
    ),#663);
#654 = GEOMETRIC_CURVE_SET('',(#655));
#655 = TRIMMED_CURVE('',#656,(#661,PARAMETER_VALUE(0.)),(#662,
    PARAMETER_VALUE(6.28318530718)),.T.,.PARAMETER.);
#656 = CIRCLE('',#657,3.292677429761E-02);
#657 = AXIS2_PLACEMENT_3D('',#658,#659,#660);
#658 = CARTESIAN_POINT('',(0.,0.,1.151180157618E-02));
#659 = DIRECTION('',(0.,0.,1.));
#660 = DIRECTION('',(1.,0.,-0.));
#661 = CARTESIAN_POINT('',(3.292677429761E-02,0.,1.151180157618E-02));
#662 = CARTESIAN_POINT('',(3.292677429761E-02,0.,1.151180157618E-02));
#663 = ( GEOMETRIC_REPRESENTATION_CONTEXT(3) 
GLOBAL_UNCERTAINTY_ASSIGNED_CONTEXT((#667)) GLOBAL_UNIT_ASSIGNED_CONTEXT
((#664,#665,#666)) REPRESENTATION_CONTEXT('Context #1',
  '3D Context with UNIT and UNCERTAINTY') );
#664 = ( LENGTH_UNIT() NAMED_UNIT(*) SI_UNIT(.MILLI.,.METRE.) );
#665 = ( NAMED_UNIT(*) PLANE_ANGLE_UNIT() SI_UNIT($,.RADIAN.) );
#666 = ( NAMED_UNIT(*) SI_UNIT($,.STERADIAN.) SOLID_ANGLE_UNIT() );
#667 = UNCERTAINTY_MEASURE_WITH_UNIT(LENGTH_MEASURE(1.E-07),#664,
  'distance_accuracy_value','confusion accuracy');
#668 = SHAPE_DEFINITION_REPRESENTATION(#669,#653);
#669 = PRODUCT_DEFINITION_SHAPE('','',#670);
#670 = PRODUCT_DEFINITION('design','',#671,#674);
#671 = PRODUCT_DEFINITION_FORMATION('','',#672);
#672 = PRODUCT('Open CASCADE STEP translator 7.5 1.4',
  'Open CASCADE STEP translator 7.5 1.4','',(#673));
#673 = PRODUCT_CONTEXT('',#2,'mechanical');
#674 = PRODUCT_DEFINITION_CONTEXT('part definition',#2,'design');
#675 = CONTEXT_DEPENDENT_SHAPE_REPRESENTATION(#676,#678);
#676 = ( REPRESENTATION_RELATIONSHIP('','',#653,#10) 
REPRESENTATION_RELATIONSHIP_WITH_TRANSFORMATION(#677) 
SHAPE_REPRESENTATION_RELATIONSHIP() );
#677 = ITEM_DEFINED_TRANSFORMATION('','',#11,#27);
#678 = PRODUCT_DEFINITION_SHAPE('Placement','Placement of an item',#679
  );
#679 = NEXT_ASSEMBLY_USAGE_OCCURRENCE('25','','',#5,#670,$);
#680 = PRODUCT_RELATED_PRODUCT_CATEGORY('part',$,(#672));
#681 = GEOMETRICALLY_BOUNDED_WIREFRAME_SHAPE_REPRESENTATION('',(#11,#682
    ),#691);
#682 = GEOMETRIC_CURVE_SET('',(#683));
#683 = TRIMMED_CURVE('',#684,(#689,PARAMETER_VALUE(0.)),(#690,
    PARAMETER_VALUE(6.28318530718)),.T.,.PARAMETER.);
#684 = CIRCLE('',#685,3.4020119575E-02);
#685 = AXIS2_PLACEMENT_3D('',#686,#687,#688);
#686 = CARTESIAN_POINT('',(0.,0.,2.162962205459E-02));
#687 = DIRECTION('',(0.,0.,1.));
#688 = DIRECTION('',(1.,0.,-0.));
#689 = CARTESIAN_POINT('',(3.4020119575E-02,0.,2.162962205459E-02));
#690 = CARTESIAN_POINT('',(3.4020119575E-02,0.,2.162962205459E-02));
#691 = ( GEOMETRIC_REPRESENTATION_CONTEXT(3) 
GLOBAL_UNCERTAINTY_ASSIGNED_CONTEXT((#695)) GLOBAL_UNIT_ASSIGNED_CONTEXT
((#692,#693,#694)) REPRESENTATION_CONTEXT('Context #1',
  '3D Context with UNIT and UNCERTAINTY') );
#692 = ( LENGTH_UNIT() NAMED_UNIT(*) SI_UNIT(.MILLI.,.METRE.) );
#693 = ( NAMED_UNIT(*) PLANE_ANGLE_UNIT() SI_UNIT($,.RADIAN.) );
#694 = ( NAMED_UNIT(*) SI_UNIT($,.STERADIAN.) SOLID_ANGLE_UNIT() );
#695 = UNCERTAINTY_MEASURE_WITH_UNIT(LENGTH_MEASURE(1.E-07),#692,
  'distance_accuracy_value','confusion accuracy');
#696 = SHAPE_DEFINITION_REPRESENTATION(#697,#681);
#697 = PRODUCT_DEFINITION_SHAPE('','',#698);
#698 = PRODUCT_DEFINITION('design','',#699,#702);
#699 = PRODUCT_DEFINITION_FORMATION('','',#700);
#700 = PRODUCT('Open CASCADE STEP translator 7.5 1.5',
  'Open CASCADE STEP translator 7.5 1.5','',(#701));
#701 = PRODUCT_CONTEXT('',#2,'mechanical');
#702 = PRODUCT_DEFINITION_CONTEXT('part definition',#2,'design');
#703 = CONTEXT_DEPENDENT_SHAPE_REPRESENTATION(#704,#706);
#704 = ( REPRESENTATION_RELATIONSHIP('','',#681,#10) 
REPRESENTATION_RELATIONSHIP_WITH_TRANSFORMATION(#705) 
SHAPE_REPRESENTATION_RELATIONSHIP() );
#705 = ITEM_DEFINED_TRANSFORMATION('','',#11,#31);
#706 = PRODUCT_DEFINITION_SHAPE('Placement','Placement of an item',#707
  );
#707 = NEXT_ASSEMBLY_USAGE_OCCURRENCE('26','','',#5,#698,$);
#708 = PRODUCT_RELATED_PRODUCT_CATEGORY('part',$,(#700));
#709 = GEOMETRICALLY_BOUNDED_WIREFRAME_SHAPE_REPRESENTATION('',(#11,#710
    ),#719);
#710 = GEOMETRIC_CURVE_SET('',(#711));
#711 = TRIMMED_CURVE('',#712,(#717,PARAMETER_VALUE(0.)),(#718,
    PARAMETER_VALUE(6.28318530718)),.T.,.PARAMETER.);
#712 = CIRCLE('',#713,3.559582448783E-02);
#713 = AXIS2_PLACEMENT_3D('',#714,#715,#716);
#714 = CARTESIAN_POINT('',(0.,0.,3.073566105055E-02));
#715 = DIRECTION('',(0.,0.,1.));
#716 = DIRECTION('',(1.,0.,-0.));
#717 = CARTESIAN_POINT('',(3.559582448783E-02,0.,3.073566105055E-02));
#718 = CARTESIAN_POINT('',(3.559582448783E-02,0.,3.073566105055E-02));
#719 = ( GEOMETRIC_REPRESENTATION_CONTEXT(3) 
GLOBAL_UNCERTAINTY_ASSIGNED_CONTEXT((#723)) GLOBAL_UNIT_ASSIGNED_CONTEXT
((#720,#721,#722)) REPRESENTATION_CONTEXT('Context #1',
  '3D Context with UNIT and UNCERTAINTY') );
#720 = ( LENGTH_UNIT() NAMED_UNIT(*) SI_UNIT(.MILLI.,.METRE.) );
#721 = ( NAMED_UNIT(*) PLANE_ANGLE_UNIT() SI_UNIT($,.RADIAN.) );
#722 = ( NAMED_UNIT(*) SI_UNIT($,.STERADIAN.) SOLID_ANGLE_UNIT() );
#723 = UNCERTAINTY_MEASURE_WITH_UNIT(LENGTH_MEASURE(1.E-07),#720,
  'distance_accuracy_value','confusion accuracy');
#724 = SHAPE_DEFINITION_REPRESENTATION(#725,#709);
#725 = PRODUCT_DEFINITION_SHAPE('','',#726);
#726 = PRODUCT_DEFINITION('design','',#727,#730);
#727 = PRODUCT_DEFINITION_FORMATION('','',#728);
#728 = PRODUCT('Open CASCADE STEP translator 7.5 1.6',
  'Open CASCADE STEP translator 7.5 1.6','',(#729));
#729 = PRODUCT_CONTEXT('',#2,'mechanical');
#730 = PRODUCT_DEFINITION_CONTEXT('part definition',#2,'design');
#731 = CONTEXT_DEPENDENT_SHAPE_REPRESENTATION(#732,#734);
#732 = ( REPRESENTATION_RELATIONSHIP('','',#709,#10) 
REPRESENTATION_RELATIONSHIP_WITH_TRANSFORMATION(#733) 
SHAPE_REPRESENTATION_RELATIONSHIP() );
#733 = ITEM_DEFINED_TRANSFORMATION('','',#11,#35);
#734 = PRODUCT_DEFINITION_SHAPE('Placement','Placement of an item',#735
  );
#735 = NEXT_ASSEMBLY_USAGE_OCCURRENCE('27','','',#5,#726,$);
#736 = PRODUCT_RELATED_PRODUCT_CATEGORY('part',$,(#728));
#737 = GEOMETRICALLY_BOUNDED_WIREFRAME_SHAPE_REPRESENTATION('',(#11,#738
    ),#747);
#738 = GEOMETRIC_CURVE_SET('',(#739));
#739 = TRIMMED_CURVE('',#740,(#745,PARAMETER_VALUE(0.)),(#746,
    PARAMETER_VALUE(6.28318530718)),.T.,.PARAMETER.);
#740 = CIRCLE('',#741,3.754743080303E-02);
#741 = AXIS2_PLACEMENT_3D('',#742,#743,#744);
#742 = CARTESIAN_POINT('',(0.,0.,3.905322207992E-02));
#743 = DIRECTION('',(0.,0.,1.));
#744 = DIRECTION('',(1.,0.,-0.));
#745 = CARTESIAN_POINT('',(3.754743080303E-02,0.,3.905322207992E-02));
#746 = CARTESIAN_POINT('',(3.754743080303E-02,0.,3.905322207992E-02));
#747 = ( GEOMETRIC_REPRESENTATION_CONTEXT(3) 
GLOBAL_UNCERTAINTY_ASSIGNED_CONTEXT((#751)) GLOBAL_UNIT_ASSIGNED_CONTEXT
((#748,#749,#750)) REPRESENTATION_CONTEXT('Context #1',
  '3D Context with UNIT and UNCERTAINTY') );
#748 = ( LENGTH_UNIT() NAMED_UNIT(*) SI_UNIT(.MILLI.,.METRE.) );
#749 = ( NAMED_UNIT(*) PLANE_ANGLE_UNIT() SI_UNIT($,.RADIAN.) );
#750 = ( NAMED_UNIT(*) SI_UNIT($,.STERADIAN.) SOLID_ANGLE_UNIT() );
#751 = UNCERTAINTY_MEASURE_WITH_UNIT(LENGTH_MEASURE(1.E-07),#748,
  'distance_accuracy_value','confusion accuracy');
#752 = SHAPE_DEFINITION_REPRESENTATION(#753,#737);
#753 = PRODUCT_DEFINITION_SHAPE('','',#754);
#754 = PRODUCT_DEFINITION('design','',#755,#758);
#755 = PRODUCT_DEFINITION_FORMATION('','',#756);
#756 = PRODUCT('Open CASCADE STEP translator 7.5 1.7',
  'Open CASCADE STEP translator 7.5 1.7','',(#757));
#757 = PRODUCT_CONTEXT('',#2,'mechanical');
#758 = PRODUCT_DEFINITION_CONTEXT('part definition',#2,'design');
#759 = CONTEXT_DEPENDENT_SHAPE_REPRESENTATION(#760,#762);
#760 = ( REPRESENTATION_RELATIONSHIP('','',#737,#10) 
REPRESENTATION_RELATIONSHIP_WITH_TRANSFORMATION(#761) 
SHAPE_REPRESENTATION_RELATIONSHIP() );
#761 = ITEM_DEFINED_TRANSFORMATION('','',#11,#39);
#762 = PRODUCT_DEFINITION_SHAPE('Placement','Placement of an item',#763
  );
#763 = NEXT_ASSEMBLY_USAGE_OCCURRENCE('28','','',#5,#754,$);
#764 = PRODUCT_RELATED_PRODUCT_CATEGORY('part',$,(#756));
#765 = GEOMETRICALLY_BOUNDED_WIREFRAME_SHAPE_REPRESENTATION('',(#11,#766
    ),#775);
#766 = GEOMETRIC_CURVE_SET('',(#767));
#767 = TRIMMED_CURVE('',#768,(#773,PARAMETER_VALUE(0.)),(#774,
    PARAMETER_VALUE(6.28318530718)),.T.,.PARAMETER.);
#768 = CIRCLE('',#769,3.980568597982E-02);
#769 = AXIS2_PLACEMENT_3D('',#770,#771,#772);
#770 = CARTESIAN_POINT('',(0.,0.,4.672756729199E-02));
#771 = DIRECTION('',(0.,0.,1.));
#772 = DIRECTION('',(1.,0.,-0.));
#773 = CARTESIAN_POINT('',(3.980568597982E-02,0.,4.672756729199E-02));
#774 = CARTESIAN_POINT('',(3.980568597982E-02,0.,4.672756729199E-02));
#775 = ( GEOMETRIC_REPRESENTATION_CONTEXT(3) 
GLOBAL_UNCERTAINTY_ASSIGNED_CONTEXT((#779)) GLOBAL_UNIT_ASSIGNED_CONTEXT
((#776,#777,#778)) REPRESENTATION_CONTEXT('Context #1',
  '3D Context with UNIT and UNCERTAINTY') );
#776 = ( LENGTH_UNIT() NAMED_UNIT(*) SI_UNIT(.MILLI.,.METRE.) );
#777 = ( NAMED_UNIT(*) PLANE_ANGLE_UNIT() SI_UNIT($,.RADIAN.) );
#778 = ( NAMED_UNIT(*) SI_UNIT($,.STERADIAN.) SOLID_ANGLE_UNIT() );
#779 = UNCERTAINTY_MEASURE_WITH_UNIT(LENGTH_MEASURE(1.E-07),#776,
  'distance_accuracy_value','confusion accuracy');
#780 = SHAPE_DEFINITION_REPRESENTATION(#781,#765);
#781 = PRODUCT_DEFINITION_SHAPE('','',#782);
#782 = PRODUCT_DEFINITION('design','',#783,#786);
#783 = PRODUCT_DEFINITION_FORMATION('','',#784);
#784 = PRODUCT('Open CASCADE STEP translator 7.5 1.8',
  'Open CASCADE STEP translator 7.5 1.8','',(#785));
#785 = PRODUCT_CONTEXT('',#2,'mechanical');
#786 = PRODUCT_DEFINITION_CONTEXT('part definition',#2,'design');
#787 = CONTEXT_DEPENDENT_SHAPE_REPRESENTATION(#788,#790);
#788 = ( REPRESENTATION_RELATIONSHIP('','',#765,#10) 
REPRESENTATION_RELATIONSHIP_WITH_TRANSFORMATION(#789) 
SHAPE_REPRESENTATION_RELATIONSHIP() );
#789 = ITEM_DEFINED_TRANSFORMATION('','',#11,#43);
#790 = PRODUCT_DEFINITION_SHAPE('Placement','Placement of an item',#791
  );
#791 = NEXT_ASSEMBLY_USAGE_OCCURRENCE('29','','',#5,#782,$);
#792 = PRODUCT_RELATED_PRODUCT_CATEGORY('part',$,(#784));
#793 = GEOMETRICALLY_BOUNDED_WIREFRAME_SHAPE_REPRESENTATION('',(#11,#794
    ),#803);
#794 = GEOMETRIC_CURVE_SET('',(#795));
#795 = TRIMMED_CURVE('',#796,(#801,PARAMETER_VALUE(0.)),(#802,
    PARAMETER_VALUE(6.28318530718)),.T.,.PARAMETER.);
#796 = CIRCLE('',#797,4.232205239186E-02);
#797 = AXIS2_PLACEMENT_3D('',#798,#799,#800);
#798 = CARTESIAN_POINT('',(0.,0.,5.386050647444E-02));
#799 = DIRECTION('',(0.,0.,1.));
#800 = DIRECTION('',(1.,0.,-0.));
#801 = CARTESIAN_POINT('',(4.232205239186E-02,0.,5.386050647444E-02));
#802 = CARTESIAN_POINT('',(4.232205239186E-02,0.,5.386050647444E-02));
#803 = ( GEOMETRIC_REPRESENTATION_CONTEXT(3) 
GLOBAL_UNCERTAINTY_ASSIGNED_CONTEXT((#807)) GLOBAL_UNIT_ASSIGNED_CONTEXT
((#804,#805,#806)) REPRESENTATION_CONTEXT('Context #1',
  '3D Context with UNIT and UNCERTAINTY') );
#804 = ( LENGTH_UNIT() NAMED_UNIT(*) SI_UNIT(.MILLI.,.METRE.) );
#805 = ( NAMED_UNIT(*) PLANE_ANGLE_UNIT() SI_UNIT($,.RADIAN.) );
#806 = ( NAMED_UNIT(*) SI_UNIT($,.STERADIAN.) SOLID_ANGLE_UNIT() );
#807 = UNCERTAINTY_MEASURE_WITH_UNIT(LENGTH_MEASURE(1.E-07),#804,
  'distance_accuracy_value','confusion accuracy');
#808 = SHAPE_DEFINITION_REPRESENTATION(#809,#793);
#809 = PRODUCT_DEFINITION_SHAPE('','',#810);
#810 = PRODUCT_DEFINITION('design','',#811,#814);
#811 = PRODUCT_DEFINITION_FORMATION('','',#812);
#812 = PRODUCT('Open CASCADE STEP translator 7.5 1.9',
  'Open CASCADE STEP translator 7.5 1.9','',(#813));
#813 = PRODUCT_CONTEXT('',#2,'mechanical');
#814 = PRODUCT_DEFINITION_CONTEXT('part definition',#2,'design');
#815 = CONTEXT_DEPENDENT_SHAPE_REPRESENTATION(#816,#818);
#816 = ( REPRESENTATION_RELATIONSHIP('','',#793,#10) 
REPRESENTATION_RELATIONSHIP_WITH_TRANSFORMATION(#817) 
SHAPE_REPRESENTATION_RELATIONSHIP() );
#817 = ITEM_DEFINED_TRANSFORMATION('','',#11,#47);
#818 = PRODUCT_DEFINITION_SHAPE('Placement','Placement of an item',#819
  );
#819 = NEXT_ASSEMBLY_USAGE_OCCURRENCE('30','','',#5,#810,$);
#820 = PRODUCT_RELATED_PRODUCT_CATEGORY('part',$,(#812));
#821 = GEOMETRICALLY_BOUNDED_WIREFRAME_SHAPE_REPRESENTATION('',(#11,#822
    ),#831);
#822 = GEOMETRIC_CURVE_SET('',(#823));
#823 = TRIMMED_CURVE('',#824,(#829,PARAMETER_VALUE(0.)),(#830,
    PARAMETER_VALUE(6.28318530718)),.T.,.PARAMETER.);
#824 = CIRCLE('',#825,4.506059057067E-02);
#825 = AXIS2_PLACEMENT_3D('',#826,#827,#828);
#826 = CARTESIAN_POINT('',(0.,0.,6.052742652234E-02));
#827 = DIRECTION('',(0.,0.,1.));
#828 = DIRECTION('',(1.,0.,-0.));
#829 = CARTESIAN_POINT('',(4.506059057067E-02,0.,6.052742652234E-02));
#830 = CARTESIAN_POINT('',(4.506059057067E-02,0.,6.052742652234E-02));
#831 = ( GEOMETRIC_REPRESENTATION_CONTEXT(3) 
GLOBAL_UNCERTAINTY_ASSIGNED_CONTEXT((#835)) GLOBAL_UNIT_ASSIGNED_CONTEXT
((#832,#833,#834)) REPRESENTATION_CONTEXT('Context #1',
  '3D Context with UNIT and UNCERTAINTY') );
#832 = ( LENGTH_UNIT() NAMED_UNIT(*) SI_UNIT(.MILLI.,.METRE.) );
#833 = ( NAMED_UNIT(*) PLANE_ANGLE_UNIT() SI_UNIT($,.RADIAN.) );
#834 = ( NAMED_UNIT(*) SI_UNIT($,.STERADIAN.) SOLID_ANGLE_UNIT() );
#835 = UNCERTAINTY_MEASURE_WITH_UNIT(LENGTH_MEASURE(1.E-07),#832,
  'distance_accuracy_value','confusion accuracy');
#836 = SHAPE_DEFINITION_REPRESENTATION(#837,#821);
#837 = PRODUCT_DEFINITION_SHAPE('','',#838);
#838 = PRODUCT_DEFINITION('design','',#839,#842);
#839 = PRODUCT_DEFINITION_FORMATION('','',#840);
#840 = PRODUCT('Open CASCADE STEP translator 7.5 1.10',
  'Open CASCADE STEP translator 7.5 1.10','',(#841));
#841 = PRODUCT_CONTEXT('',#2,'mechanical');
#842 = PRODUCT_DEFINITION_CONTEXT('part definition',#2,'design');
#843 = CONTEXT_DEPENDENT_SHAPE_REPRESENTATION(#844,#846);
#844 = ( REPRESENTATION_RELATIONSHIP('','',#821,#10) 
REPRESENTATION_RELATIONSHIP_WITH_TRANSFORMATION(#845) 
SHAPE_REPRESENTATION_RELATIONSHIP() );
#845 = ITEM_DEFINED_TRANSFORMATION('','',#11,#51);
#846 = PRODUCT_DEFINITION_SHAPE('Placement','Placement of an item',#847
  );
#847 = NEXT_ASSEMBLY_USAGE_OCCURRENCE('31','','',#5,#838,$);
#848 = PRODUCT_RELATED_PRODUCT_CATEGORY('part',$,(#840));
#849 = GEOMETRICALLY_BOUNDED_WIREFRAME_SHAPE_REPRESENTATION('',(#11,#850
    ),#859);
#850 = GEOMETRIC_CURVE_SET('',(#851));
#851 = TRIMMED_CURVE('',#852,(#857,PARAMETER_VALUE(0.)),(#858,
    PARAMETER_VALUE(6.28318530718)),.T.,.PARAMETER.);
#852 = CIRCLE('',#853,4.799354982746E-02);
#853 = AXIS2_PLACEMENT_3D('',#854,#855,#856);
#854 = CARTESIAN_POINT('',(0.,0.,6.678653498455E-02));
#855 = DIRECTION('',(0.,0.,1.));
#856 = DIRECTION('',(1.,0.,-0.));
#857 = CARTESIAN_POINT('',(4.799354982746E-02,0.,6.678653498455E-02));
#858 = CARTESIAN_POINT('',(4.799354982746E-02,0.,6.678653498455E-02));
#859 = ( GEOMETRIC_REPRESENTATION_CONTEXT(3) 
GLOBAL_UNCERTAINTY_ASSIGNED_CONTEXT((#863)) GLOBAL_UNIT_ASSIGNED_CONTEXT
((#860,#861,#862)) REPRESENTATION_CONTEXT('Context #1',
  '3D Context with UNIT and UNCERTAINTY') );
#860 = ( LENGTH_UNIT() NAMED_UNIT(*) SI_UNIT(.MILLI.,.METRE.) );
#861 = ( NAMED_UNIT(*) PLANE_ANGLE_UNIT() SI_UNIT($,.RADIAN.) );
#862 = ( NAMED_UNIT(*) SI_UNIT($,.STERADIAN.) SOLID_ANGLE_UNIT() );
#863 = UNCERTAINTY_MEASURE_WITH_UNIT(LENGTH_MEASURE(1.E-07),#860,
  'distance_accuracy_value','confusion accuracy');
#864 = SHAPE_DEFINITION_REPRESENTATION(#865,#849);
#865 = PRODUCT_DEFINITION_SHAPE('','',#866);
#866 = PRODUCT_DEFINITION('design','',#867,#870);
#867 = PRODUCT_DEFINITION_FORMATION('','',#868);
#868 = PRODUCT('Open CASCADE STEP translator 7.5 1.11',
  'Open CASCADE STEP translator 7.5 1.11','',(#869));
#869 = PRODUCT_CONTEXT('',#2,'mechanical');
#870 = PRODUCT_DEFINITION_CONTEXT('part definition',#2,'design');
#871 = CONTEXT_DEPENDENT_SHAPE_REPRESENTATION(#872,#874);
#872 = ( REPRESENTATION_RELATIONSHIP('','',#849,#10) 
REPRESENTATION_RELATIONSHIP_WITH_TRANSFORMATION(#873) 
SHAPE_REPRESENTATION_RELATIONSHIP() );
#873 = ITEM_DEFINED_TRANSFORMATION('','',#11,#55);
#874 = PRODUCT_DEFINITION_SHAPE('Placement','Placement of an item',#875
  );
#875 = NEXT_ASSEMBLY_USAGE_OCCURRENCE('32','','',#5,#866,$);
#876 = PRODUCT_RELATED_PRODUCT_CATEGORY('part',$,(#868));
#877 = GEOMETRICALLY_BOUNDED_WIREFRAME_SHAPE_REPRESENTATION('',(#11,#878
    ),#887);
#878 = GEOMETRIC_CURVE_SET('',(#879));
#879 = TRIMMED_CURVE('',#880,(#885,PARAMETER_VALUE(0.)),(#886,
    PARAMETER_VALUE(6.28318530718)),.T.,.PARAMETER.);
#880 = CIRCLE('',#881,5.109879281953E-02);
#881 = AXIS2_PLACEMENT_3D('',#882,#883,#884);
#882 = CARTESIAN_POINT('',(0.,0.,7.268426729677E-02));
#883 = DIRECTION('',(0.,0.,1.));
#884 = DIRECTION('',(1.,0.,-0.));
#885 = CARTESIAN_POINT('',(5.109879281953E-02,0.,7.268426729677E-02));
#886 = CARTESIAN_POINT('',(5.109879281953E-02,0.,7.268426729677E-02));
#887 = ( GEOMETRIC_REPRESENTATION_CONTEXT(3) 
GLOBAL_UNCERTAINTY_ASSIGNED_CONTEXT((#891)) GLOBAL_UNIT_ASSIGNED_CONTEXT
((#888,#889,#890)) REPRESENTATION_CONTEXT('Context #1',
  '3D Context with UNIT and UNCERTAINTY') );
#888 = ( LENGTH_UNIT() NAMED_UNIT(*) SI_UNIT(.MILLI.,.METRE.) );
#889 = ( NAMED_UNIT(*) PLANE_ANGLE_UNIT() SI_UNIT($,.RADIAN.) );
#890 = ( NAMED_UNIT(*) SI_UNIT($,.STERADIAN.) SOLID_ANGLE_UNIT() );
#891 = UNCERTAINTY_MEASURE_WITH_UNIT(LENGTH_MEASURE(1.E-07),#888,
  'distance_accuracy_value','confusion accuracy');
#892 = SHAPE_DEFINITION_REPRESENTATION(#893,#877);
#893 = PRODUCT_DEFINITION_SHAPE('','',#894);
#894 = PRODUCT_DEFINITION('design','',#895,#898);
#895 = PRODUCT_DEFINITION_FORMATION('','',#896);
#896 = PRODUCT('Open CASCADE STEP translator 7.5 1.12',
  'Open CASCADE STEP translator 7.5 1.12','',(#897));
#897 = PRODUCT_CONTEXT('',#2,'mechanical');
#898 = PRODUCT_DEFINITION_CONTEXT('part definition',#2,'design');
#899 = CONTEXT_DEPENDENT_SHAPE_REPRESENTATION(#900,#902);
#900 = ( REPRESENTATION_RELATIONSHIP('','',#877,#10) 
REPRESENTATION_RELATIONSHIP_WITH_TRANSFORMATION(#901) 
SHAPE_REPRESENTATION_RELATIONSHIP() );
#901 = ITEM_DEFINED_TRANSFORMATION('','',#11,#59);
#902 = PRODUCT_DEFINITION_SHAPE('Placement','Placement of an item',#903
  );
#903 = NEXT_ASSEMBLY_USAGE_OCCURRENCE('33','','',#5,#894,$);
#904 = PRODUCT_RELATED_PRODUCT_CATEGORY('part',$,(#896));
#905 = GEOMETRICALLY_BOUNDED_WIREFRAME_SHAPE_REPRESENTATION('',(#11,#906
    ),#915);
#906 = GEOMETRIC_CURVE_SET('',(#907));
#907 = TRIMMED_CURVE('',#908,(#913,PARAMETER_VALUE(0.)),(#914,
    PARAMETER_VALUE(6.28318530718)),.T.,.PARAMETER.);
#908 = CIRCLE('',#909,5.435819944959E-02);
#909 = AXIS2_PLACEMENT_3D('',#910,#911,#912);
#910 = CARTESIAN_POINT('',(0.,0.,7.825863240437E-02));
#911 = DIRECTION('',(0.,0.,1.));
#912 = DIRECTION('',(1.,0.,-0.));
#913 = CARTESIAN_POINT('',(5.435819944959E-02,0.,7.825863240437E-02));
#914 = CARTESIAN_POINT('',(5.435819944959E-02,0.,7.825863240437E-02));
#915 = ( GEOMETRIC_REPRESENTATION_CONTEXT(3) 
GLOBAL_UNCERTAINTY_ASSIGNED_CONTEXT((#919)) GLOBAL_UNIT_ASSIGNED_CONTEXT
((#916,#917,#918)) REPRESENTATION_CONTEXT('Context #1',
  '3D Context with UNIT and UNCERTAINTY') );
#916 = ( LENGTH_UNIT() NAMED_UNIT(*) SI_UNIT(.MILLI.,.METRE.) );
#917 = ( NAMED_UNIT(*) PLANE_ANGLE_UNIT() SI_UNIT($,.RADIAN.) );
#918 = ( NAMED_UNIT(*) SI_UNIT($,.STERADIAN.) SOLID_ANGLE_UNIT() );
#919 = UNCERTAINTY_MEASURE_WITH_UNIT(LENGTH_MEASURE(1.E-07),#916,
  'distance_accuracy_value','confusion accuracy');
#920 = SHAPE_DEFINITION_REPRESENTATION(#921,#905);
#921 = PRODUCT_DEFINITION_SHAPE('','',#922);
#922 = PRODUCT_DEFINITION('design','',#923,#926);
#923 = PRODUCT_DEFINITION_FORMATION('','',#924);
#924 = PRODUCT('Open CASCADE STEP translator 7.5 1.13',
  'Open CASCADE STEP translator 7.5 1.13','',(#925));
#925 = PRODUCT_CONTEXT('',#2,'mechanical');
#926 = PRODUCT_DEFINITION_CONTEXT('part definition',#2,'design');
#927 = CONTEXT_DEPENDENT_SHAPE_REPRESENTATION(#928,#930);
#928 = ( REPRESENTATION_RELATIONSHIP('','',#905,#10) 
REPRESENTATION_RELATIONSHIP_WITH_TRANSFORMATION(#929) 
SHAPE_REPRESENTATION_RELATIONSHIP() );
#929 = ITEM_DEFINED_TRANSFORMATION('','',#11,#63);
#930 = PRODUCT_DEFINITION_SHAPE('Placement','Placement of an item',#931
  );
#931 = NEXT_ASSEMBLY_USAGE_OCCURRENCE('34','','',#5,#922,$);
#932 = PRODUCT_RELATED_PRODUCT_CATEGORY('part',$,(#924));
#933 = GEOMETRICALLY_BOUNDED_WIREFRAME_SHAPE_REPRESENTATION('',(#11,#934
    ),#943);
#934 = GEOMETRIC_CURVE_SET('',(#935));
#935 = TRIMMED_CURVE('',#936,(#941,PARAMETER_VALUE(0.)),(#942,
    PARAMETER_VALUE(6.28318530718)),.T.,.PARAMETER.);
#936 = CIRCLE('',#937,5.775662981744E-02);
#937 = AXIS2_PLACEMENT_3D('',#938,#939,#940);
#938 = CARTESIAN_POINT('',(0.,0.,8.354138493042E-02));
#939 = DIRECTION('',(0.,0.,1.));
#940 = DIRECTION('',(1.,0.,-0.));
#941 = CARTESIAN_POINT('',(5.775662981744E-02,0.,8.354138493042E-02));
#942 = CARTESIAN_POINT('',(5.775662981744E-02,0.,8.354138493042E-02));
#943 = ( GEOMETRIC_REPRESENTATION_CONTEXT(3) 
GLOBAL_UNCERTAINTY_ASSIGNED_CONTEXT((#947)) GLOBAL_UNIT_ASSIGNED_CONTEXT
((#944,#945,#946)) REPRESENTATION_CONTEXT('Context #1',
  '3D Context with UNIT and UNCERTAINTY') );
#944 = ( LENGTH_UNIT() NAMED_UNIT(*) SI_UNIT(.MILLI.,.METRE.) );
#945 = ( NAMED_UNIT(*) PLANE_ANGLE_UNIT() SI_UNIT($,.RADIAN.) );
#946 = ( NAMED_UNIT(*) SI_UNIT($,.STERADIAN.) SOLID_ANGLE_UNIT() );
#947 = UNCERTAINTY_MEASURE_WITH_UNIT(LENGTH_MEASURE(1.E-07),#944,
  'distance_accuracy_value','confusion accuracy');
#948 = SHAPE_DEFINITION_REPRESENTATION(#949,#933);
#949 = PRODUCT_DEFINITION_SHAPE('','',#950);
#950 = PRODUCT_DEFINITION('design','',#951,#954);
#951 = PRODUCT_DEFINITION_FORMATION('','',#952);
#952 = PRODUCT('Open CASCADE STEP translator 7.5 1.14',
  'Open CASCADE STEP translator 7.5 1.14','',(#953));
#953 = PRODUCT_CONTEXT('',#2,'mechanical');
#954 = PRODUCT_DEFINITION_CONTEXT('part definition',#2,'design');
#955 = CONTEXT_DEPENDENT_SHAPE_REPRESENTATION(#956,#958);
#956 = ( REPRESENTATION_RELATIONSHIP('','',#933,#10) 
REPRESENTATION_RELATIONSHIP_WITH_TRANSFORMATION(#957) 
SHAPE_REPRESENTATION_RELATIONSHIP() );
#957 = ITEM_DEFINED_TRANSFORMATION('','',#11,#67);
#958 = PRODUCT_DEFINITION_SHAPE('Placement','Placement of an item',#959
  );
#959 = NEXT_ASSEMBLY_USAGE_OCCURRENCE('35','','',#5,#950,$);
#960 = PRODUCT_RELATED_PRODUCT_CATEGORY('part',$,(#952));
#961 = GEOMETRICALLY_BOUNDED_WIREFRAME_SHAPE_REPRESENTATION('',(#11,#962
    ),#971);
#962 = GEOMETRIC_CURVE_SET('',(#963));
#963 = TRIMMED_CURVE('',#964,(#969,PARAMETER_VALUE(0.)),(#970,
    PARAMETER_VALUE(6.28318530718)),.T.,.PARAMETER.);
#964 = CIRCLE('',#965,6.128122517315E-02);
#965 = AXIS2_PLACEMENT_3D('',#966,#967,#968);
#966 = CARTESIAN_POINT('',(0.,0.,8.855949671683E-02));
#967 = DIRECTION('',(0.,0.,1.));
#968 = DIRECTION('',(1.,0.,-0.));
#969 = CARTESIAN_POINT('',(6.128122517315E-02,0.,8.855949671683E-02));
#970 = CARTESIAN_POINT('',(6.128122517315E-02,0.,8.855949671683E-02));
#971 = ( GEOMETRIC_REPRESENTATION_CONTEXT(3) 
GLOBAL_UNCERTAINTY_ASSIGNED_CONTEXT((#975)) GLOBAL_UNIT_ASSIGNED_CONTEXT
((#972,#973,#974)) REPRESENTATION_CONTEXT('Context #1',
  '3D Context with UNIT and UNCERTAINTY') );
#972 = ( LENGTH_UNIT() NAMED_UNIT(*) SI_UNIT(.MILLI.,.METRE.) );
#973 = ( NAMED_UNIT(*) PLANE_ANGLE_UNIT() SI_UNIT($,.RADIAN.) );
#974 = ( NAMED_UNIT(*) SI_UNIT($,.STERADIAN.) SOLID_ANGLE_UNIT() );
#975 = UNCERTAINTY_MEASURE_WITH_UNIT(LENGTH_MEASURE(1.E-07),#972,
  'distance_accuracy_value','confusion accuracy');
#976 = SHAPE_DEFINITION_REPRESENTATION(#977,#961);
#977 = PRODUCT_DEFINITION_SHAPE('','',#978);
#978 = PRODUCT_DEFINITION('design','',#979,#982);
#979 = PRODUCT_DEFINITION_FORMATION('','',#980);
#980 = PRODUCT('Open CASCADE STEP translator 7.5 1.15',
  'Open CASCADE STEP translator 7.5 1.15','',(#981));
#981 = PRODUCT_CONTEXT('',#2,'mechanical');
#982 = PRODUCT_DEFINITION_CONTEXT('part definition',#2,'design');
#983 = CONTEXT_DEPENDENT_SHAPE_REPRESENTATION(#984,#986);
#984 = ( REPRESENTATION_RELATIONSHIP('','',#961,#10) 
REPRESENTATION_RELATIONSHIP_WITH_TRANSFORMATION(#985) 
SHAPE_REPRESENTATION_RELATIONSHIP() );
#985 = ITEM_DEFINED_TRANSFORMATION('','',#11,#71);
#986 = PRODUCT_DEFINITION_SHAPE('Placement','Placement of an item',#987
  );
#987 = NEXT_ASSEMBLY_USAGE_OCCURRENCE('36','','',#5,#978,$);
#988 = PRODUCT_RELATED_PRODUCT_CATEGORY('part',$,(#980));
#989 = GEOMETRICALLY_BOUNDED_WIREFRAME_SHAPE_REPRESENTATION('',(#11,#990
    ),#999);
#990 = GEOMETRIC_CURVE_SET('',(#991));
#991 = TRIMMED_CURVE('',#992,(#997,PARAMETER_VALUE(0.)),(#998,
    PARAMETER_VALUE(6.28318530718)),.T.,.PARAMETER.);
#992 = CIRCLE('',#993,6.492091804367E-02);
#993 = AXIS2_PLACEMENT_3D('',#994,#995,#996);
#994 = CARTESIAN_POINT('',(0.,0.,9.333618497947E-02));
#995 = DIRECTION('',(0.,0.,1.));
#996 = DIRECTION('',(1.,0.,-0.));
#997 = CARTESIAN_POINT('',(6.492091804367E-02,0.,9.333618497947E-02));
#998 = CARTESIAN_POINT('',(6.492091804367E-02,0.,9.333618497947E-02));
#999 = ( GEOMETRIC_REPRESENTATION_CONTEXT(3) 
GLOBAL_UNCERTAINTY_ASSIGNED_CONTEXT((#1003)) 
GLOBAL_UNIT_ASSIGNED_CONTEXT((#1000,#1001,#1002)) REPRESENTATION_CONTEXT
('Context #1','3D Context with UNIT and UNCERTAINTY') );
#1000 = ( LENGTH_UNIT() NAMED_UNIT(*) SI_UNIT(.MILLI.,.METRE.) );
#1001 = ( NAMED_UNIT(*) PLANE_ANGLE_UNIT() SI_UNIT($,.RADIAN.) );
#1002 = ( NAMED_UNIT(*) SI_UNIT($,.STERADIAN.) SOLID_ANGLE_UNIT() );
#1003 = UNCERTAINTY_MEASURE_WITH_UNIT(LENGTH_MEASURE(1.E-07),#1000,
  'distance_accuracy_value','confusion accuracy');
#1004 = SHAPE_DEFINITION_REPRESENTATION(#1005,#989);
#1005 = PRODUCT_DEFINITION_SHAPE('','',#1006);
#1006 = PRODUCT_DEFINITION('design','',#1007,#1010);
#1007 = PRODUCT_DEFINITION_FORMATION('','',#1008);
#1008 = PRODUCT('Open CASCADE STEP translator 7.5 1.16',
  'Open CASCADE STEP translator 7.5 1.16','',(#1009));
#1009 = PRODUCT_CONTEXT('',#2,'mechanical');
#1010 = PRODUCT_DEFINITION_CONTEXT('part definition',#2,'design');
#1011 = CONTEXT_DEPENDENT_SHAPE_REPRESENTATION(#1012,#1014);
#1012 = ( REPRESENTATION_RELATIONSHIP('','',#989,#10) 
REPRESENTATION_RELATIONSHIP_WITH_TRANSFORMATION(#1013) 
SHAPE_REPRESENTATION_RELATIONSHIP() );
#1013 = ITEM_DEFINED_TRANSFORMATION('','',#11,#75);
#1014 = PRODUCT_DEFINITION_SHAPE('Placement','Placement of an item',
  #1015);
#1015 = NEXT_ASSEMBLY_USAGE_OCCURRENCE('37','','',#5,#1006,$);
#1016 = PRODUCT_RELATED_PRODUCT_CATEGORY('part',$,(#1008));
#1017 = GEOMETRICALLY_BOUNDED_WIREFRAME_SHAPE_REPRESENTATION('',(#11,
    #1018),#1027);
#1018 = GEOMETRIC_CURVE_SET('',(#1019));
#1019 = TRIMMED_CURVE('',#1020,(#1025,PARAMETER_VALUE(0.)),(#1026,
    PARAMETER_VALUE(6.28318530718)),.T.,.PARAMETER.);
#1020 = CIRCLE('',#1021,6.866607667492E-02);
#1021 = AXIS2_PLACEMENT_3D('',#1022,#1023,#1024);
#1022 = CARTESIAN_POINT('',(0.,0.,9.789165160734E-02));
#1023 = DIRECTION('',(0.,0.,1.));
#1024 = DIRECTION('',(1.,0.,-0.));
#1025 = CARTESIAN_POINT('',(6.866607667492E-02,0.,9.789165160734E-02));
#1026 = CARTESIAN_POINT('',(6.866607667492E-02,0.,9.789165160734E-02));
#1027 = ( GEOMETRIC_REPRESENTATION_CONTEXT(3) 
GLOBAL_UNCERTAINTY_ASSIGNED_CONTEXT((#1031)) 
GLOBAL_UNIT_ASSIGNED_CONTEXT((#1028,#1029,#1030)) REPRESENTATION_CONTEXT
('Context #1','3D Context with UNIT and UNCERTAINTY') );
#1028 = ( LENGTH_UNIT() NAMED_UNIT(*) SI_UNIT(.MILLI.,.METRE.) );
#1029 = ( NAMED_UNIT(*) PLANE_ANGLE_UNIT() SI_UNIT($,.RADIAN.) );
#1030 = ( NAMED_UNIT(*) SI_UNIT($,.STERADIAN.) SOLID_ANGLE_UNIT() );
#1031 = UNCERTAINTY_MEASURE_WITH_UNIT(LENGTH_MEASURE(1.E-07),#1028,
  'distance_accuracy_value','confusion accuracy');
#1032 = SHAPE_DEFINITION_REPRESENTATION(#1033,#1017);
#1033 = PRODUCT_DEFINITION_SHAPE('','',#1034);
#1034 = PRODUCT_DEFINITION('design','',#1035,#1038);
#1035 = PRODUCT_DEFINITION_FORMATION('','',#1036);
#1036 = PRODUCT('Open CASCADE STEP translator 7.5 1.17',
  'Open CASCADE STEP translator 7.5 1.17','',(#1037));
#1037 = PRODUCT_CONTEXT('',#2,'mechanical');
#1038 = PRODUCT_DEFINITION_CONTEXT('part definition',#2,'design');
#1039 = CONTEXT_DEPENDENT_SHAPE_REPRESENTATION(#1040,#1042);
#1040 = ( REPRESENTATION_RELATIONSHIP('','',#1017,#10) 
REPRESENTATION_RELATIONSHIP_WITH_TRANSFORMATION(#1041) 
SHAPE_REPRESENTATION_RELATIONSHIP() );
#1041 = ITEM_DEFINED_TRANSFORMATION('','',#11,#79);
#1042 = PRODUCT_DEFINITION_SHAPE('Placement','Placement of an item',
  #1043);
#1043 = NEXT_ASSEMBLY_USAGE_OCCURRENCE('38','','',#5,#1034,$);
#1044 = PRODUCT_RELATED_PRODUCT_CATEGORY('part',$,(#1036));
#1045 = GEOMETRICALLY_BOUNDED_WIREFRAME_SHAPE_REPRESENTATION('',(#11,
    #1046),#1055);
#1046 = GEOMETRIC_CURVE_SET('',(#1047));
#1047 = TRIMMED_CURVE('',#1048,(#1053,PARAMETER_VALUE(0.)),(#1054,
    PARAMETER_VALUE(6.28318530718)),.T.,.PARAMETER.);
#1048 = CIRCLE('',#1049,7.250824494811E-02);
#1049 = AXIS2_PLACEMENT_3D('',#1050,#1051,#1052);
#1050 = CARTESIAN_POINT('',(0.,0.,0.102243635977));
#1051 = DIRECTION('',(0.,0.,1.));
#1052 = DIRECTION('',(1.,0.,-0.));
#1053 = CARTESIAN_POINT('',(7.250824494811E-02,0.,0.102243635977));
#1054 = CARTESIAN_POINT('',(7.250824494811E-02,0.,0.102243635977));
#1055 = ( GEOMETRIC_REPRESENTATION_CONTEXT(3) 
GLOBAL_UNCERTAINTY_ASSIGNED_CONTEXT((#1059)) 
GLOBAL_UNIT_ASSIGNED_CONTEXT((#1056,#1057,#1058)) REPRESENTATION_CONTEXT
('Context #1','3D Context with UNIT and UNCERTAINTY') );
#1056 = ( LENGTH_UNIT() NAMED_UNIT(*) SI_UNIT(.MILLI.,.METRE.) );
#1057 = ( NAMED_UNIT(*) PLANE_ANGLE_UNIT() SI_UNIT($,.RADIAN.) );
#1058 = ( NAMED_UNIT(*) SI_UNIT($,.STERADIAN.) SOLID_ANGLE_UNIT() );
#1059 = UNCERTAINTY_MEASURE_WITH_UNIT(LENGTH_MEASURE(1.E-07),#1056,
  'distance_accuracy_value','confusion accuracy');
#1060 = SHAPE_DEFINITION_REPRESENTATION(#1061,#1045);
#1061 = PRODUCT_DEFINITION_SHAPE('','',#1062);
#1062 = PRODUCT_DEFINITION('design','',#1063,#1066);
#1063 = PRODUCT_DEFINITION_FORMATION('','',#1064);
#1064 = PRODUCT('Open CASCADE STEP translator 7.5 1.18',
  'Open CASCADE STEP translator 7.5 1.18','',(#1065));
#1065 = PRODUCT_CONTEXT('',#2,'mechanical');
#1066 = PRODUCT_DEFINITION_CONTEXT('part definition',#2,'design');
#1067 = CONTEXT_DEPENDENT_SHAPE_REPRESENTATION(#1068,#1070);
#1068 = ( REPRESENTATION_RELATIONSHIP('','',#1045,#10) 
REPRESENTATION_RELATIONSHIP_WITH_TRANSFORMATION(#1069) 
SHAPE_REPRESENTATION_RELATIONSHIP() );
#1069 = ITEM_DEFINED_TRANSFORMATION('','',#11,#83);
#1070 = PRODUCT_DEFINITION_SHAPE('Placement','Placement of an item',
  #1071);
#1071 = NEXT_ASSEMBLY_USAGE_OCCURRENCE('39','','',#5,#1062,$);
#1072 = PRODUCT_RELATED_PRODUCT_CATEGORY('part',$,(#1064));
#1073 = GEOMETRICALLY_BOUNDED_WIREFRAME_SHAPE_REPRESENTATION('',(#11,
    #1074),#1083);
#1074 = GEOMETRIC_CURVE_SET('',(#1075));
#1075 = TRIMMED_CURVE('',#1076,(#1081,PARAMETER_VALUE(0.)),(#1082,
    PARAMETER_VALUE(6.28318530718)),.T.,.PARAMETER.);
#1076 = CIRCLE('',#1077,7.643993999886E-02);
#1077 = AXIS2_PLACEMENT_3D('',#1078,#1079,#1080);
#1078 = CARTESIAN_POINT('',(0.,0.,0.106407828896));
#1079 = DIRECTION('',(0.,0.,1.));
#1080 = DIRECTION('',(1.,0.,-0.));
#1081 = CARTESIAN_POINT('',(7.643993999886E-02,0.,0.106407828896));
#1082 = CARTESIAN_POINT('',(7.643993999886E-02,0.,0.106407828896));
#1083 = ( GEOMETRIC_REPRESENTATION_CONTEXT(3) 
GLOBAL_UNCERTAINTY_ASSIGNED_CONTEXT((#1087)) 
GLOBAL_UNIT_ASSIGNED_CONTEXT((#1084,#1085,#1086)) REPRESENTATION_CONTEXT
('Context #1','3D Context with UNIT and UNCERTAINTY') );
#1084 = ( LENGTH_UNIT() NAMED_UNIT(*) SI_UNIT(.MILLI.,.METRE.) );
#1085 = ( NAMED_UNIT(*) PLANE_ANGLE_UNIT() SI_UNIT($,.RADIAN.) );
#1086 = ( NAMED_UNIT(*) SI_UNIT($,.STERADIAN.) SOLID_ANGLE_UNIT() );
#1087 = UNCERTAINTY_MEASURE_WITH_UNIT(LENGTH_MEASURE(1.E-07),#1084,
  'distance_accuracy_value','confusion accuracy');
#1088 = SHAPE_DEFINITION_REPRESENTATION(#1089,#1073);
#1089 = PRODUCT_DEFINITION_SHAPE('','',#1090);
#1090 = PRODUCT_DEFINITION('design','',#1091,#1094);
#1091 = PRODUCT_DEFINITION_FORMATION('','',#1092);
#1092 = PRODUCT('Open CASCADE STEP translator 7.5 1.19',
  'Open CASCADE STEP translator 7.5 1.19','',(#1093));
#1093 = PRODUCT_CONTEXT('',#2,'mechanical');
#1094 = PRODUCT_DEFINITION_CONTEXT('part definition',#2,'design');
#1095 = CONTEXT_DEPENDENT_SHAPE_REPRESENTATION(#1096,#1098);
#1096 = ( REPRESENTATION_RELATIONSHIP('','',#1073,#10) 
REPRESENTATION_RELATIONSHIP_WITH_TRANSFORMATION(#1097) 
SHAPE_REPRESENTATION_RELATIONSHIP() );
#1097 = ITEM_DEFINED_TRANSFORMATION('','',#11,#87);
#1098 = PRODUCT_DEFINITION_SHAPE('Placement','Placement of an item',
  #1099);
#1099 = NEXT_ASSEMBLY_USAGE_OCCURRENCE('40','','',#5,#1090,$);
#1100 = PRODUCT_RELATED_PRODUCT_CATEGORY('part',$,(#1092));
#1101 = GEOMETRICALLY_BOUNDED_WIREFRAME_SHAPE_REPRESENTATION('',(#11,
    #1102),#1111);
#1102 = GEOMETRIC_CURVE_SET('',(#1103));
#1103 = TRIMMED_CURVE('',#1104,(#1109,PARAMETER_VALUE(0.)),(#1110,
    PARAMETER_VALUE(6.28318530718)),.T.,.PARAMETER.);
#1104 = CIRCLE('',#1105,8.04545030595E-02);
#1105 = AXIS2_PLACEMENT_3D('',#1106,#1107,#1108);
#1106 = CARTESIAN_POINT('',(0.,0.,0.110398202567));
#1107 = DIRECTION('',(0.,0.,1.));
#1108 = DIRECTION('',(1.,0.,-0.));
#1109 = CARTESIAN_POINT('',(8.04545030595E-02,0.,0.110398202567));
#1110 = CARTESIAN_POINT('',(8.04545030595E-02,0.,0.110398202567));
#1111 = ( GEOMETRIC_REPRESENTATION_CONTEXT(3) 
GLOBAL_UNCERTAINTY_ASSIGNED_CONTEXT((#1115)) 
GLOBAL_UNIT_ASSIGNED_CONTEXT((#1112,#1113,#1114)) REPRESENTATION_CONTEXT
('Context #1','3D Context with UNIT and UNCERTAINTY') );
#1112 = ( LENGTH_UNIT() NAMED_UNIT(*) SI_UNIT(.MILLI.,.METRE.) );
#1113 = ( NAMED_UNIT(*) PLANE_ANGLE_UNIT() SI_UNIT($,.RADIAN.) );
#1114 = ( NAMED_UNIT(*) SI_UNIT($,.STERADIAN.) SOLID_ANGLE_UNIT() );
#1115 = UNCERTAINTY_MEASURE_WITH_UNIT(LENGTH_MEASURE(1.E-07),#1112,
  'distance_accuracy_value','confusion accuracy');
#1116 = SHAPE_DEFINITION_REPRESENTATION(#1117,#1101);
#1117 = PRODUCT_DEFINITION_SHAPE('','',#1118);
#1118 = PRODUCT_DEFINITION('design','',#1119,#1122);
#1119 = PRODUCT_DEFINITION_FORMATION('','',#1120);
#1120 = PRODUCT('Open CASCADE STEP translator 7.5 1.20',
  'Open CASCADE STEP translator 7.5 1.20','',(#1121));
#1121 = PRODUCT_CONTEXT('',#2,'mechanical');
#1122 = PRODUCT_DEFINITION_CONTEXT('part definition',#2,'design');
#1123 = CONTEXT_DEPENDENT_SHAPE_REPRESENTATION(#1124,#1126);
#1124 = ( REPRESENTATION_RELATIONSHIP('','',#1101,#10) 
REPRESENTATION_RELATIONSHIP_WITH_TRANSFORMATION(#1125) 
SHAPE_REPRESENTATION_RELATIONSHIP() );
#1125 = ITEM_DEFINED_TRANSFORMATION('','',#11,#91);
#1126 = PRODUCT_DEFINITION_SHAPE('Placement','Placement of an item',
  #1127);
#1127 = NEXT_ASSEMBLY_USAGE_OCCURRENCE('41','','',#5,#1118,$);
#1128 = PRODUCT_RELATED_PRODUCT_CATEGORY('part',$,(#1120));
#1129 = GEOMETRICALLY_BOUNDED_WIREFRAME_SHAPE_REPRESENTATION('',(#11,
    #1130),#1139);
#1130 = GEOMETRIC_CURVE_SET('',(#1131));
#1131 = TRIMMED_CURVE('',#1132,(#1137,PARAMETER_VALUE(0.)),(#1138,
    PARAMETER_VALUE(6.28318530718)),.T.,.PARAMETER.);
#1132 = CIRCLE('',#1133,8.454597257135E-02);
#1133 = AXIS2_PLACEMENT_3D('',#1134,#1135,#1136);
#1134 = CARTESIAN_POINT('',(0.,0.,0.114227261604));
#1135 = DIRECTION('',(0.,0.,1.));
#1136 = DIRECTION('',(1.,0.,-0.));
#1137 = CARTESIAN_POINT('',(8.454597257135E-02,0.,0.114227261604));
#1138 = CARTESIAN_POINT('',(8.454597257135E-02,0.,0.114227261604));
#1139 = ( GEOMETRIC_REPRESENTATION_CONTEXT(3) 
GLOBAL_UNCERTAINTY_ASSIGNED_CONTEXT((#1143)) 
GLOBAL_UNIT_ASSIGNED_CONTEXT((#1140,#1141,#1142)) REPRESENTATION_CONTEXT
('Context #1','3D Context with UNIT and UNCERTAINTY') );
#1140 = ( LENGTH_UNIT() NAMED_UNIT(*) SI_UNIT(.MILLI.,.METRE.) );
#1141 = ( NAMED_UNIT(*) PLANE_ANGLE_UNIT() SI_UNIT($,.RADIAN.) );
#1142 = ( NAMED_UNIT(*) SI_UNIT($,.STERADIAN.) SOLID_ANGLE_UNIT() );
#1143 = UNCERTAINTY_MEASURE_WITH_UNIT(LENGTH_MEASURE(1.E-07),#1140,
  'distance_accuracy_value','confusion accuracy');
#1144 = SHAPE_DEFINITION_REPRESENTATION(#1145,#1129);
#1145 = PRODUCT_DEFINITION_SHAPE('','',#1146);
#1146 = PRODUCT_DEFINITION('design','',#1147,#1150);
#1147 = PRODUCT_DEFINITION_FORMATION('','',#1148);
#1148 = PRODUCT('Open CASCADE STEP translator 7.5 1.21',
  'Open CASCADE STEP translator 7.5 1.21','',(#1149));
#1149 = PRODUCT_CONTEXT('',#2,'mechanical');
#1150 = PRODUCT_DEFINITION_CONTEXT('part definition',#2,'design');
#1151 = CONTEXT_DEPENDENT_SHAPE_REPRESENTATION(#1152,#1154);
#1152 = ( REPRESENTATION_RELATIONSHIP('','',#1129,#10) 
REPRESENTATION_RELATIONSHIP_WITH_TRANSFORMATION(#1153) 
SHAPE_REPRESENTATION_RELATIONSHIP() );
#1153 = ITEM_DEFINED_TRANSFORMATION('','',#11,#95);
#1154 = PRODUCT_DEFINITION_SHAPE('Placement','Placement of an item',
  #1155);
#1155 = NEXT_ASSEMBLY_USAGE_OCCURRENCE('42','','',#5,#1146,$);
#1156 = PRODUCT_RELATED_PRODUCT_CATEGORY('part',$,(#1148));
ENDSEC;
END-ISO-10303-21;
